<?xml version="1.0" encoding="UTF-8" standalone="no"?>
<svg
   xmlns:dc="http://purl.org/dc/elements/1.1/"
   xmlns:cc="http://creativecommons.org/ns#"
   xmlns:rdf="http://www.w3.org/1999/02/22-rdf-syntax-ns#"
   xmlns:svg="http://www.w3.org/2000/svg"
   xmlns="http://www.w3.org/2000/svg"
   viewBox="0 0 666.66669 666.66669"
   height="666.66669"
   width="666.66669"
   xml:space="preserve"
   id="svg2"
   version="1.1"><metadata
     id="metadata8"><rdf:RDF><cc:Work
         rdf:about=""><dc:format>image/svg+xml</dc:format><dc:type
           rdf:resource="http://purl.org/dc/dcmitype/StillImage" /></cc:Work></rdf:RDF></metadata><defs
     id="defs6"><clipPath
       id="clipPath20"
       clipPathUnits="userSpaceOnUse"><path
         id="path18"
         d="M 0,500 H 500 V 0 H 0 Z" /></clipPath><clipPath
       id="clipPath28"
       clipPathUnits="userSpaceOnUse"><path
         id="path26"
         d="M 41.6711,399.716 H 466.884 V 101.877 H 41.6711 Z" /></clipPath><clipPath
       id="clipPath896"
       clipPathUnits="userSpaceOnUse"><path
         id="path894"
         d="M 0,500 H 500 V 0 H 0 Z" /></clipPath></defs><g
     transform="matrix(1.3333333,0,0,-1.3333333,0,666.66667)"
     id="g10"><path
       id="path12"
       style="fill:#f5f8ff;fill-opacity:0.0;fill-rule:nonzero;stroke:none"
       d="M 0,0 H 500 V 500 H 0 Z" /><g
       id="g14"><g
         clip-path="url(#clipPath20)"
         id="g16"><g
           id="g22"><g
             id="g24" /><g
             id="g36"><g
               style="opacity:0.83000201"
               id="g34"
               clip-path="url(#clipPath28)"><g
                 id="g32"
                 transform="translate(65.6025,232.1064)"><path
                   id="path30"
                   style="fill:#b5e3f4;fill-opacity:1;fill-rule:evenodd;stroke:none"
                   d="m 0,0 c -18.803,-5.456 -31.967,-46.596 -11.595,-66.439 16.873,-16.456 -61.326,-65.427 43.455,-63.293 21.22,0.418 270.974,-3.102 277.906,4.114 40.213,-1.078 118.158,17.599 82.354,70.971 -15.114,22.527 6.825,43.669 -3.138,63.997 -10.323,21.142 -34.743,7.436 -46.571,26.487 -14.288,23.056 16.047,46.112 -8.649,67.452 -12.571,10.867 -51.85,-6.908 -60.817,11.637 -10.896,22.528 -35.613,78.386 -79.005,38.984 C 159.981,123.044 114.363,171.025 87.251,133.296 72.646,112.968 85.449,104.256 73.557,89.011 57.955,69.013 35.294,82.213 25.353,70.531 8.395,50.599 47.695,13.815 0,0" /></g></g></g></g><g
           transform="translate(136.1396,140.1592)"
           id="g38"><path
             id="path40"
             style="fill:#84788f;fill-opacity:1;fill-rule:evenodd;stroke:none"
             d="M 0,0 C -5.781,38.516 -72.756,62.061 -112.181,52.982 -97,9.464 -38.955,-21.427 0,0" /></g><g
           transform="translate(23.9585,193.1416)"
           id="g42"><path
             id="path44"
             style="fill:#7e6c82;fill-opacity:1;fill-rule:evenodd;stroke:none"
             d="M 0,0 C 15.181,-43.519 73.227,-74.409 112.181,-52.982 91.009,-30.734 30.483,-5.239 0,0" /></g><g
           transform="translate(23.9585,193.1416)"
           id="g46"><path
             id="path48"
             style="fill:#725166;fill-opacity:1;fill-rule:evenodd;stroke:none"
             d="m 0,0 c 34.188,-9.11 85.458,-30.501 111.232,-53.492 0.317,0.167 0.634,0.336 0.949,0.51 C 91.009,-30.734 30.483,-5.239 0,0" /></g><g
           transform="translate(113.9019,156.3271)"
           id="g50"><path
             id="path52"
             style="fill:#725166;fill-opacity:1;fill-rule:evenodd;stroke:none"
             d="M 0,0 -26.861,-7.547 -0.74,0.519 Z" /></g><g
           transform="translate(107.501,159.5098)"
           id="g54"><path
             id="path56"
             style="fill:#725166;fill-opacity:1;fill-rule:evenodd;stroke:none"
             d="M 0,0 C -0.074,0.443 -9.768,18.943 -9.768,18.943 L -0.851,0.518 Z" /></g><g
           transform="translate(93.8481,167.0576)"
           id="g58"><path
             id="path60"
             style="fill:#725166;fill-opacity:1;fill-rule:evenodd;stroke:none"
             d="m 0,0 c 0,0 -25.308,-8.141 -24.863,-7.845 0.444,0.297 25.584,7.438 25.584,7.438 z" /></g><g
           transform="translate(82.5815,172.8848)"
           id="g62"><path
             id="path64"
             style="fill:#725166;fill-opacity:1;fill-rule:evenodd;stroke:none"
             d="M 0,0 C 0.217,0.479 -11.581,15.059 -11.581,15.059 L -0.814,-0.223 Z" /></g><g
           transform="translate(67.4487,178.8408)"
           id="g66"><path
             id="path68"
             style="fill:#725166;fill-opacity:1;fill-rule:evenodd;stroke:none"
             d="M 0,0 -19.276,-3.773 0.703,-0.406 Z" /></g><g
           transform="translate(55.0908,183.7988)"
           id="g70"><path
             id="path72"
             style="fill:#725166;fill-opacity:1;fill-rule:evenodd;stroke:none"
             d="M 0,0 C -0.148,0.222 -8.88,9.065 -8.88,9.065 L -0.758,0.037 Z" /></g><g
           transform="translate(43.9355,187.7207)"
           id="g74"><path
             id="path76"
             style="fill:#725166;fill-opacity:1;fill-rule:evenodd;stroke:none"
             d="m 0,0 c -0.407,0.074 -12.913,-0.666 -12.395,-0.666 0.518,0 12.895,0.186 12.895,0.186 z" /></g><g
           transform="translate(140.8423,144.2197)"
           id="g78"><path
             id="path80"
             style="fill:#844e8f;fill-opacity:1;fill-rule:evenodd;stroke:none"
             d="M 0,0 C 16.967,26.115 -10.628,75.724 -39.036,91.2 -53.03,57.104 -34.675,7.836 0,0" /></g><g
           transform="translate(101.8062,235.4199)"
           id="g82"><path
             id="path84"
             style="fill:#7f4784;fill-opacity:1;fill-rule:evenodd;stroke:none"
             d="M 0,0 C -13.994,-34.096 4.361,-83.364 39.036,-91.2 38.165,-66.658 15.464,-19.303 0,0" /></g><g
           transform="translate(101.8062,235.4199)"
           id="g86"><path
             id="path88"
             style="fill:#6c2d59;fill-opacity:1;fill-rule:evenodd;stroke:none"
             d="m 0,0 c 15.628,-23.583 34.967,-63.575 38.198,-91.003 0.278,-0.068 0.557,-0.135 0.838,-0.197 C 38.165,-66.658 15.464,-19.303 0,0" /></g><g
           transform="translate(136.1084,165.6885)"
           id="g90"><path
             id="path92"
             style="fill:#6c2d59;fill-opacity:1;fill-rule:evenodd;stroke:none"
             d="M 0,0 -20.078,9.729 -0.168,0.702 Z" /></g><g
           transform="translate(133.9658,170.9873)"
           id="g94"><path
             id="path96"
             style="fill:#6c2d59;fill-opacity:1;fill-rule:evenodd;stroke:none"
             d="M 0,0 C 0.191,0.305 4.201,16.517 4.201,16.517 L -0.235,0.762 Z" /></g><g
           transform="translate(129.7979,182.7451)"
           id="g98"><path
             id="path100"
             style="fill:#6c2d59;fill-opacity:1;fill-rule:evenodd;stroke:none"
             d="M 0,0 C 0,0 -19.462,8.55 -19.039,8.491 -18.616,8.433 0.216,-0.627 0.216,-0.627 Z" /></g><g
           transform="translate(126.146,192.207)"
           id="g102"><path
             id="path104"
             style="fill:#6c2d59;fill-opacity:1;fill-rule:evenodd;stroke:none"
             d="M 0,0 C 0.384,0.172 1.055,15.153 1.055,15.153 L -0.605,0.299 Z" /></g><g
           transform="translate(120.249,203.7969)"
           id="g106"><path
             id="path108"
             style="fill:#6c2d59;fill-opacity:1;fill-rule:evenodd;stroke:none"
             d="M 0,0 -13.538,7.965 0.205,-0.616 Z" /></g><g
           transform="translate(115.4824,213.3174)"
           id="g110"><path
             id="path112"
             style="fill:#6c2d59;fill-opacity:1;fill-rule:evenodd;stroke:none"
             d="m 0,0 c 0.029,0.212 -0.507,10.135 -0.507,10.135 l 0.073,-9.71 z" /></g><g
           transform="translate(110.8867,221.5811)"
           id="g114"><path
             id="path116"
             style="fill:#6c2d59;fill-opacity:1;fill-rule:evenodd;stroke:none"
             d="M 0,0 C -0.205,0.26 -8.081,6.449 -7.771,6.175 -7.461,5.9 0.044,-0.553 0.044,-0.553 Z" /></g><g
           transform="translate(137.6914,135.166)"
           id="g118"><path
             id="path120"
             style="fill:#738067;fill-opacity:1;fill-rule:evenodd;stroke:none"
             d="M 0,0 C -20.411,23.522 -75.713,10.711 -98.437,-12.314 -69.536,-35.186 -17.113,-31.159 0,0" /></g><g
           transform="translate(39.2549,122.8516)"
           id="g122"><path
             id="path124"
             style="fill:#6c6656;fill-opacity:1;fill-rule:evenodd;stroke:none"
             d="M 0,0 C 28.9,-22.871 81.324,-18.845 98.437,12.314 74.609,18.259 22.824,9.527 0,0" /></g><g
           transform="translate(39.2549,122.8516)"
           id="g126"><path
             id="path128"
             style="fill:#68594d;fill-opacity:1;fill-rule:evenodd;stroke:none"
             d="m 0,0 c 26.983,8.503 70.761,16.037 98.014,11.563 0.143,0.25 0.284,0.5 0.423,0.751 C 74.609,18.259 22.824,9.527 0,0" /></g><g
           transform="translate(115.7495,136.5498)"
           id="g130"><path
             id="path132"
             style="fill:#68594d;fill-opacity:1;fill-rule:evenodd;stroke:none"
             d="M 0,0 -14.897,-16.608 -0.721,0.032 Z" /></g><g
           transform="translate(110.0649,135.9541)"
           id="g134"><path
             id="path136"
             style="fill:#68594d;fill-opacity:1;fill-rule:evenodd;stroke:none"
             d="M 0,0 C -0.24,0.268 -14.713,8.602 -14.713,8.602 L -0.796,-0.015 Z" /></g><g
           transform="translate(97.6138,135.1973)"
           id="g138"><path
             id="path140"
             style="fill:#68594d;fill-opacity:1;fill-rule:evenodd;stroke:none"
             d="M 0,0 C 0,0 -13.595,-16.341 -13.422,-15.951 -13.25,-15.561 0.662,0.035 0.662,0.035 Z" /></g><g
           transform="translate(87.5107,134.3027)"
           id="g142"><path
             id="path144"
             style="fill:#68594d;fill-opacity:1;fill-rule:evenodd;stroke:none"
             d="m 0,0 c -0.059,0.417 -14.272,5.201 -14.272,5.201 l 13.817,-5.7 z" /></g><g
           transform="translate(74.7422,131.8379)"
           id="g146"><path
             id="path148"
             style="fill:#68594d;fill-opacity:1;fill-rule:evenodd;stroke:none"
             d="M 0,0 -11.395,-10.81 0.649,0.026 Z" /></g><g
           transform="translate(64.2754,129.8877)"
           id="g150"><path
             id="path152"
             style="fill:#68594d;fill-opacity:1;fill-rule:evenodd;stroke:none"
             d="M 0,0 C -0.195,0.087 -9.879,2.313 -9.879,2.313 L -0.528,-0.3 Z" /></g><g
           transform="translate(55.064,127.7539)"
           id="g154"><path
             id="path156"
             style="fill:#68594d;fill-opacity:1;fill-rule:evenodd;stroke:none"
             d="m 0,0 c -0.307,-0.124 -8.432,-5.983 -8.082,-5.762 0.35,0.222 8.625,5.652 8.625,5.652 z" /></g><g
           transform="translate(363.8604,132.1592)"
           id="g158"><path
             id="path160"
             style="fill:#84788f;fill-opacity:1;fill-rule:evenodd;stroke:none"
             d="M 0,0 C 5.781,38.516 72.756,62.061 112.182,52.982 97,9.464 38.954,-21.427 0,0" /></g><g
           transform="translate(476.042,185.1416)"
           id="g162"><path
             id="path164"
             style="fill:#7e6c82;fill-opacity:1;fill-rule:evenodd;stroke:none"
             d="M 0,0 C -15.182,-43.519 -73.228,-74.409 -112.182,-52.982 -91.01,-30.734 -30.483,-5.239 0,0" /></g><g
           transform="translate(476.042,185.1416)"
           id="g166"><path
             id="path168"
             style="fill:#725166;fill-opacity:1;fill-rule:evenodd;stroke:none"
             d="m 0,0 c -34.188,-9.11 -85.459,-30.501 -111.232,-53.492 -0.318,0.167 -0.634,0.336 -0.95,0.51 C -91.01,-30.734 -30.483,-5.239 0,0" /></g><g
           transform="translate(386.0986,148.3271)"
           id="g170"><path
             id="path172"
             style="fill:#725166;fill-opacity:1;fill-rule:evenodd;stroke:none"
             d="M 0,0 26.861,-7.547 0.739,0.519 Z" /></g><g
           transform="translate(392.499,151.5098)"
           id="g174"><path
             id="path176"
             style="fill:#725166;fill-opacity:1;fill-rule:evenodd;stroke:none"
             d="M 0,0 C 0.074,0.443 9.768,18.943 9.768,18.943 L 0.851,0.518 Z" /></g><g
           transform="translate(406.1514,159.0576)"
           id="g178"><path
             id="path180"
             style="fill:#725166;fill-opacity:1;fill-rule:evenodd;stroke:none"
             d="M 0,0 C 0,0 25.308,-8.141 24.864,-7.845 24.42,-7.548 -0.721,-0.407 -0.721,-0.407 Z" /></g><g
           transform="translate(417.418,164.8848)"
           id="g182"><path
             id="path184"
             style="fill:#725166;fill-opacity:1;fill-rule:evenodd;stroke:none"
             d="M 0,0 C -0.217,0.479 11.581,15.059 11.581,15.059 L 0.814,-0.223 Z" /></g><g
           transform="translate(432.5508,170.8408)"
           id="g186"><path
             id="path188"
             style="fill:#725166;fill-opacity:1;fill-rule:evenodd;stroke:none"
             d="M 0,0 19.277,-3.773 -0.702,-0.406 Z" /></g><g
           transform="translate(444.9092,175.7988)"
           id="g190"><path
             id="path192"
             style="fill:#725166;fill-opacity:1;fill-rule:evenodd;stroke:none"
             d="M 0,0 C 0.148,0.222 8.88,9.065 8.88,9.065 L 0.759,0.037 Z" /></g><g
           transform="translate(456.0645,179.7207)"
           id="g194"><path
             id="path196"
             style="fill:#725166;fill-opacity:1;fill-rule:evenodd;stroke:none"
             d="m 0,0 c 0.407,0.074 12.913,-0.666 12.395,-0.666 -0.518,0 -12.894,0.186 -12.894,0.186 z" /></g><g
           transform="translate(359.1582,136.2197)"
           id="g198"><path
             id="path200"
             style="fill:#844e8f;fill-opacity:1;fill-rule:evenodd;stroke:none"
             d="M 0,0 C -16.967,26.115 10.627,75.724 39.035,91.2 53.03,57.104 34.675,7.836 0,0" /></g><g
           transform="translate(398.1934,227.4199)"
           id="g202"><path
             id="path204"
             style="fill:#7f4784;fill-opacity:1;fill-rule:evenodd;stroke:none"
             d="M 0,0 C 13.995,-34.096 -4.36,-83.364 -39.035,-91.2 -38.164,-66.658 -15.463,-19.303 0,0" /></g><g
           transform="translate(398.1934,227.4199)"
           id="g206"><path
             id="path208"
             style="fill:#6c2d59;fill-opacity:1;fill-rule:evenodd;stroke:none"
             d="m 0,0 c -15.628,-23.583 -34.967,-63.575 -38.197,-91.003 -0.279,-0.068 -0.558,-0.135 -0.838,-0.197 C -38.164,-66.658 -15.463,-19.303 0,0" /></g><g
           transform="translate(363.8916,157.6885)"
           id="g210"><path
             id="path212"
             style="fill:#6c2d59;fill-opacity:1;fill-rule:evenodd;stroke:none"
             d="M 0,0 20.077,9.729 0.168,0.702 Z" /></g><g
           transform="translate(366.0342,162.9873)"
           id="g214"><path
             id="path216"
             style="fill:#6c2d59;fill-opacity:1;fill-rule:evenodd;stroke:none"
             d="M 0,0 C -0.191,0.305 -4.2,16.517 -4.2,16.517 L 0.235,0.762 Z" /></g><g
           transform="translate(370.2021,174.7451)"
           id="g218"><path
             id="path220"
             style="fill:#6c2d59;fill-opacity:1;fill-rule:evenodd;stroke:none"
             d="M 0,0 C 0,0 19.462,8.55 19.039,8.491 18.616,8.433 -0.216,-0.627 -0.216,-0.627 Z" /></g><g
           transform="translate(373.8545,184.207)"
           id="g222"><path
             id="path224"
             style="fill:#6c2d59;fill-opacity:1;fill-rule:evenodd;stroke:none"
             d="M 0,0 C -0.385,0.172 -1.056,15.153 -1.056,15.153 L 0.604,0.299 Z" /></g><g
           transform="translate(379.751,195.7969)"
           id="g226"><path
             id="path228"
             style="fill:#6c2d59;fill-opacity:1;fill-rule:evenodd;stroke:none"
             d="M 0,0 13.537,7.965 -0.205,-0.616 Z" /></g><g
           transform="translate(384.5176,205.3174)"
           id="g230"><path
             id="path232"
             style="fill:#6c2d59;fill-opacity:1;fill-rule:evenodd;stroke:none"
             d="M 0,0 C -0.029,0.212 0.507,10.135 0.507,10.135 L 0.435,0.425 Z" /></g><g
           transform="translate(389.1133,213.5811)"
           id="g234"><path
             id="path236"
             style="fill:#6c2d59;fill-opacity:1;fill-rule:evenodd;stroke:none"
             d="M 0,0 C 0.204,0.26 8.081,6.449 7.771,6.175 7.461,5.9 -0.044,-0.553 -0.044,-0.553 Z" /></g><g
           transform="translate(362.3086,127.166)"
           id="g238"><path
             id="path240"
             style="fill:#738067;fill-opacity:1;fill-rule:evenodd;stroke:none"
             d="M 0,0 C 20.41,23.522 75.713,10.711 98.437,-12.314 69.536,-35.186 17.113,-31.159 0,0" /></g><g
           transform="translate(460.7451,114.8516)"
           id="g242"><path
             id="path244"
             style="fill:#6c6656;fill-opacity:1;fill-rule:evenodd;stroke:none"
             d="M 0,0 C -28.9,-22.871 -81.323,-18.845 -98.437,12.314 -74.608,18.259 -22.823,9.527 0,0" /></g><g
           transform="translate(460.7451,114.8516)"
           id="g246"><path
             id="path248"
             style="fill:#68594d;fill-opacity:1;fill-rule:evenodd;stroke:none"
             d="m 0,0 c -26.983,8.503 -70.762,16.037 -98.014,11.563 -0.143,0.25 -0.284,0.5 -0.423,0.751 C -74.608,18.259 -22.823,9.527 0,0" /></g><g
           transform="translate(384.25,128.5498)"
           id="g250"><path
             id="path252"
             style="fill:#68594d;fill-opacity:1;fill-rule:evenodd;stroke:none"
             d="M 0,0 14.898,-16.608 0.722,0.032 Z" /></g><g
           transform="translate(389.9346,127.9541)"
           id="g254"><path
             id="path256"
             style="fill:#68594d;fill-opacity:1;fill-rule:evenodd;stroke:none"
             d="M 0,0 C 0.241,0.268 14.713,8.602 14.713,8.602 L 0.797,-0.015 Z" /></g><g
           transform="translate(402.3867,127.1973)"
           id="g258"><path
             id="path260"
             style="fill:#68594d;fill-opacity:1;fill-rule:evenodd;stroke:none"
             d="M 0,0 C 0,0 13.595,-16.341 13.422,-15.951 13.249,-15.561 -0.662,0.035 -0.662,0.035 Z" /></g><g
           transform="translate(412.4893,126.3027)"
           id="g262"><path
             id="path264"
             style="fill:#68594d;fill-opacity:1;fill-rule:evenodd;stroke:none"
             d="M 0,0 C 0.06,0.417 14.271,5.201 14.271,5.201 L 0.454,-0.499 Z" /></g><g
           transform="translate(425.2578,123.8379)"
           id="g266"><path
             id="path268"
             style="fill:#68594d;fill-opacity:1;fill-rule:evenodd;stroke:none"
             d="M 0,0 11.396,-10.81 -0.649,0.026 Z" /></g><g
           transform="translate(435.7246,121.8877)"
           id="g270"><path
             id="path272"
             style="fill:#68594d;fill-opacity:1;fill-rule:evenodd;stroke:none"
             d="M 0,0 C 0.195,0.087 9.88,2.313 9.88,2.313 L 0.528,-0.3 Z" /></g><g
           transform="translate(444.9365,119.7539)"
           id="g274"><path
             id="path276"
             style="fill:#68594d;fill-opacity:1;fill-rule:evenodd;stroke:none"
             d="M 0,0 C 0.306,-0.124 8.431,-5.983 8.081,-5.762 7.731,-5.54 -0.544,-0.11 -0.544,-0.11 Z" /></g><g
           transform="translate(311.9814,226.3193)"
           id="g278"><path
             id="path280"
             style="fill:#efaf9e;fill-opacity:1;fill-rule:evenodd;stroke:none"
             d="M 0,0 C 0,0 2.034,-2.374 2.097,-3.102 2.159,-3.828 1.661,-5.699 1.37,-5.298 1.079,-4.896 1.027,-3.665 1.027,-3.665 L 0.463,-2.98 c 0,0 0.392,-3.66 0.202,-4.328 -0.191,-0.669 -0.562,-0.654 -0.562,-0.654 0,0 -0.051,-0.585 -0.432,-0.681 -0.311,-0.077 -0.529,-0.028 -0.697,0.328 0,0 -0.106,-0.14 -0.396,0.017 -0.29,0.156 -0.468,0.542 -0.468,0.542 0,0 -0.215,-0.093 -0.464,0.204 -0.247,0.297 -0.287,0.501 -0.302,0.568 -0.015,0.065 -0.399,2.777 -0.442,2.894 -0.487,1.32 -0.146,3.346 0.634,4.256 C -0.968,1.91 -1.564,0.667 0,0" /></g><g
           transform="translate(363.2451,267.9629)"
           id="g282"><path
             id="path284"
             style="fill:#eead9a;fill-opacity:1;fill-rule:evenodd;stroke:none"
             d="M 0,0 C -0.164,0.066 -0.952,-0.479 -1.782,0.41 -2.632,0.884 -2.898,1.875 -2.58,2.429 -2.286,2.942 -1.712,3.386 -1.506,3.78 -1.029,4.629 -0.408,5.221 0.9,4.721 2.21,4.221 2.845,4.009 2.868,2.597 2.892,1.185 1.156,-0.032 0,0" /></g><g
           transform="translate(347.9238,163.8623)"
           id="g286"><path
             id="path288"
             style="fill:#1e1925;fill-opacity:1;fill-rule:evenodd;stroke:none"
             d="m 0,0 c 0.545,-1.496 0.963,-3.539 0.963,-3.539 0,0 8.332,-3.67 7.153,-4.531 -1.831,-1.339 -8.614,0.391 -11.017,0.907 l 0.013,3.818 z" /></g><g
           transform="translate(322.252,164.7998)"
           id="g290"><path
             id="path292"
             style="fill:#1e1925;fill-opacity:1;fill-rule:evenodd;stroke:none"
             d="m 0,0 c -0.544,-1.496 -0.963,-3.54 -0.963,-3.54 0,0 -8.332,-3.669 -7.153,-4.53 1.831,-1.339 10.453,0.295 10.451,1.042 l -0.014,3.819 z" /></g><g
           transform="translate(342.0918,229.9658)"
           id="g294"><path
             id="path296"
             style="fill:#7b4652;fill-opacity:1;fill-rule:evenodd;stroke:none"
             d="m 0,0 c 3.447,-18.964 4.976,-46.972 6.795,-69.643 0,0 -2.719,-0.067 -3.851,0.195 -4.548,18.893 -8.642,38.377 -13.19,57.27 -2.43,-18.61 -4.77,-38.308 -7.199,-56.918 -0.651,-0.203 -2.647,0.287 -3.357,0.39 -0.711,0.103 -1.018,66.747 -0.887,67.53 C -21.56,-0.392 0,0 0,0" /></g><g
           transform="translate(331.7832,279.9326)"
           id="g298"><path
             id="path300"
             style="fill:#eda08c;fill-opacity:1;fill-rule:evenodd;stroke:none"
             d="m 0,0 c -0.159,-1.491 -0.252,-6.299 2.686,-7.347 1.205,-0.429 2.331,-1.354 2.331,-1.354 -0.084,-4.534 -10.639,-5.733 -15.054,-1.631 l 1.75,2.079 c 3.694,0.747 2.106,6.968 1.919,9.945 z" /></g><g
           transform="translate(340.8389,264.0283)"
           id="g302"><path
             id="path304"
             style="fill:#e86870;fill-opacity:1;fill-rule:evenodd;stroke:none"
             d="m 0,0 c -0.475,-16.695 2.443,-28.918 3.113,-38.107 0.29,-4.754 -24.905,-8.065 -24.887,-4.114 0.469,13.534 0.65,27.932 -0.851,40.379 l 0.051,7.892 c 0.225,0.049 0.45,0.1 0.674,0.154 l 4.557,1.447 c 0,0 2.721,-2.72 7.073,-2.176 4.353,0.544 3.9,3.083 3.9,3.083 1.986,-0.318 3.931,-0.729 5.92,-1.048 z" /></g><g
           transform="translate(321.3203,287.1108)"
           id="g306"><path
             id="path308"
             style="fill:#3d211a;fill-opacity:1;fill-rule:evenodd;stroke:none"
             d="M 0,0 C -0.169,-0.698 0.709,-3.658 1.465,-5.352 2.221,-7.046 4.376,-7.984 4.36,-7.737 4.345,-7.489 3.823,-1.474 3.823,-1.474 Z" /></g><g
           transform="translate(336.2656,279.0728)"
           id="g310"><path
             id="path312"
             style="fill:#efaf9e;fill-opacity:1;fill-rule:evenodd;stroke:none"
             d="m 0,0 c -0.746,-4.128 -2.547,-5.357 -5.487,-3.924 -2.518,1.226 -4.344,3.419 -5.541,5.765 -0.798,-0.221 -1.766,0.283 -2.33,1.284 -0.666,1.181 -0.519,2.606 0.328,3.184 0.188,0.128 0.395,0.204 0.611,0.231 -0.092,1.261 0.016,2.451 0.078,3.713 0.116,2.349 6.432,4.626 9.193,3.187 C 0.296,11.645 0.53,2.943 0,0" /></g><g
           transform="translate(326.126,288.272)"
           id="g314"><path
             id="path316"
             style="fill:#3d211a;fill-opacity:1;fill-rule:evenodd;stroke:none"
             d="m 0,0 c -0.271,-0.277 0.35,-4.609 -0.128,-4.628 -0.477,-0.019 -2.151,1.969 -2.151,1.969 0,0 -0.088,0.118 -0.612,-0.231 -0.523,-0.35 -0.653,-0.956 -0.653,-0.956 0,0 -2.105,4.03 -1.861,4.932 0.244,0.903 2.011,2.046 2.011,2.046 0,0 0.145,0.958 1.139,2.065 0.994,1.107 3.903,1.341 7.786,1.901 3.844,0.555 6.588,-1.852 3.1,-4.554 C 5.42,0.058 0,0 0,0" /></g><g
           transform="translate(318.2646,270.0781)"
           id="g318"><path
             id="path320"
             style="fill:#e86870;fill-opacity:1;fill-rule:evenodd;stroke:none"
             d="m 0,0 c -5.59,-2.408 -9.102,-25.435 -9.526,-44.827 l 3.606,0.847 c 0.355,9.632 2.223,22.711 7.053,35.979 z" /></g><g
           transform="translate(340.3887,271.5381)"
           id="g322"><path
             id="path324"
             style="fill:#e86870;fill-opacity:1;fill-rule:evenodd;stroke:none"
             d="m 0,0 c 5.963,-6.228 11.307,-17.487 11.307,-17.487 0.426,0.628 7.669,12.788 8.969,16.341 l 2.58,-2.429 C 21.561,-6.736 14.537,-23.819 12.048,-24.101 7.15,-24.653 0.736,-10.943 -1.133,-8.002 Z" /></g><g
           transform="translate(376.2246,286.2729)"
           id="g326"><path
             id="path328"
             style="fill:#faffff;fill-opacity:1;fill-rule:evenodd;stroke:none"
             d="M 0,0 C 0.247,0.055 3.099,0.142 3.099,0.142 L 4.68,-4.637 2.473,-6.559 Z" /></g><g
           transform="translate(364.7666,277.8901)"
           id="g330"><path
             id="path332"
             style="fill:#000313;fill-opacity:1;fill-rule:evenodd;stroke:none"
             d="m 0,0 c -0.129,-0.599 -0.057,-2.488 0.585,-4.303 0.642,-1.814 1.87,-2.996 1.883,-3.757 0.014,-0.791 -2.061,-2.166 -2.976,-1.223 -0.737,0.76 -2.947,8.571 -2.746,8.727 C -3.054,-0.4 0,0 0,0" /></g><g
           transform="translate(376.2773,291.9277)"
           id="g334"><path
             id="path336"
             style="fill:#c7cfdf;fill-opacity:1;fill-rule:evenodd;stroke:none"
             d="m 0,0 c -0.073,0.151 -0.245,-0.045 -0.756,-0.394 -0.51,-0.35 -0.102,-0.07 -0.521,-0.933 -0.888,-1.828 -12.496,-8.799 -14.714,-9.834 -1.385,-0.646 -1.679,-0.917 -2.145,-1.286 l 2.176,-5.96 c 0.596,0.006 0.882,0.104 2.366,0.472 2.374,0.59 15.784,2.47 17.623,1.607 0.497,-0.233 1.829,-0.233 1.828,-0.229 C 4.534,-10.905 2.592,-5.384 0,0" /></g><g
           transform="translate(376.2773,291.9277)"
           id="g338"><path
             id="path340"
             style="fill:#ea8a0f;fill-opacity:1;fill-rule:evenodd;stroke:none"
             d="m 0,0 c -0.073,0.151 -0.245,-0.045 -0.756,-0.394 -0.51,-0.35 -0.102,-0.07 -0.521,-0.933 2.119,-4.649 3.899,-9.634 5.306,-15.001 0.868,-0.407 0.376,-0.447 0.993,-0.397 0.617,0.049 0.874,0.005 0.835,0.168 C 4.534,-10.905 2.592,-5.384 0,0" /></g><g
           transform="translate(360.541,280.8911)"
           id="g342"><path
             id="path344"
             style="fill:#ea8a0f;fill-opacity:1;fill-rule:evenodd;stroke:none"
             d="M 0,0 C -0.095,-0.047 -0.181,-0.089 -0.255,-0.124 -1.64,-0.77 -2.471,-0.839 -2.938,-1.209 l 1.156,-3.267 1.155,-3.266 c 0.596,0.006 1.285,0.475 2.77,0.844 0.079,0.02 0.171,0.041 0.275,0.064 z" /></g><g
           transform="translate(361.541,276.9551)"
           id="g346"><path
             id="path348"
             style="fill:#c06029;fill-opacity:1;fill-rule:evenodd;stroke:none"
             d="M 0,0 C -0.041,0.224 -0.054,0.36 -0.028,0.379 0.085,0.467 1.115,0.634 1.987,0.762 Z" /></g><g
           transform="translate(376.2773,291.9277)"
           id="g350"><path
             id="path352"
             style="fill:#e2e9fa;fill-opacity:1;fill-rule:evenodd;stroke:none"
             d="m 0,0 c -0.072,0.15 -1.124,-1.011 -1.277,-1.327 -0.888,-1.828 -12.496,-8.799 -14.714,-9.834 -1.385,-0.646 -1.678,-0.917 -2.145,-1.286 l 1.105,-3.406 20.385,7.819 C 2.39,-5.324 1.272,-2.646 0,0" /></g><g
           transform="translate(376.2773,291.9277)"
           id="g354"><path
             id="path356"
             style="fill:#efa92e;fill-opacity:1;fill-rule:evenodd;stroke:none"
             d="m 0,0 c -0.072,0.151 -0.245,-0.045 -0.756,-0.394 -0.51,-0.35 -0.102,-0.07 -0.521,-0.933 1.076,-2.361 2.064,-4.808 2.961,-7.347 l 1.67,0.64 C 2.39,-5.324 1.273,-2.646 0,0" /></g><g
           transform="translate(360.541,280.8911)"
           id="g358"><path
             id="path360"
             style="fill:#efa92e;fill-opacity:1;fill-rule:evenodd;stroke:none"
             d="M 0,0 C -0.095,-0.047 -0.181,-0.089 -0.255,-0.124 -1.64,-0.77 -2.471,-0.839 -2.938,-1.209 l 1.156,-3.267 0.164,-0.464 2.964,1.136 z" /></g><g
           transform="translate(383.7803,287.7417)"
           id="g362"><path
             id="path364"
             style="fill:#2c2c39;fill-opacity:1;fill-rule:evenodd;stroke:none"
             d="M 0,0 6.895,3.999 6.198,4.856 Z" /></g><g
           transform="translate(381.1045,290.0527)"
           id="g366"><path
             id="path368"
             style="fill:#2c2c39;fill-opacity:1;fill-rule:evenodd;stroke:none"
             d="M 0,0 5.041,7.139 4.498,7.588 Z" /></g><g
           transform="translate(383.0283,283.1616)"
           id="g370"><path
             id="path372"
             style="fill:#2c2c39;fill-opacity:1;fill-rule:evenodd;stroke:none"
             d="M 0,0 10.778,0.62 10.693,-0.481 Z" /></g><g
           transform="translate(383.0605,280.1733)"
           id="g374"><path
             id="path376"
             style="fill:#2c2c39;fill-opacity:1;fill-rule:evenodd;stroke:none"
             d="M 0,0 8.692,-3.436 8.523,-4.12 Z" /></g><g
           transform="translate(364.1445,273.0444)"
           id="g378"><path
             id="path380"
             style="fill:#eda08c;fill-opacity:1;fill-rule:evenodd;stroke:none"
             d="M 0,0 C -0.329,-1.245 0.363,-2.707 1.388,-3.27 1.716,-3.45 2.241,-3.599 3.248,-2.806 4.163,-2.085 2.553,0.744 1.844,0.879 1.135,1.013 0.016,0.424 0,0" /></g><g
           transform="translate(361.916,269.9316)"
           id="g382"><path
             id="path384"
             style="fill:#efaf9e;fill-opacity:1;fill-rule:evenodd;stroke:none"
             d="m 0,0 -0.7,0.749 c 0,0 0.477,2.056 0.913,2.525 C 0.647,3.745 2.316,5.427 2.508,5.249 2.698,5.071 2.784,4.596 2.35,3.725 1.914,2.854 1.062,2.517 1.062,2.517 c 0,0 0.276,-1.463 -0.039,-2.414 C 0.708,-0.848 0,0 0,0" /></g><g
           transform="translate(325.1084,290.2134)"
           id="g386"><path
             id="path388"
             style="fill:#3d211a;fill-opacity:1;fill-rule:evenodd;stroke:none"
             d="m 0,0 0.968,-2.09 c 1.407,-0.149 6.026,-0.618 7.036,-0.127 l -0.903,0.526 c 0,0 1.735,-0.088 3.455,0.561 1.718,0.65 2.182,1.496 2.036,1.496 -0.147,0 -1.391,0.091 -1.391,0.091 0,0 0.806,0.115 1.684,1.852 0.879,1.736 1.049,2.559 0.879,2.399 -0.171,-0.16 -1.27,-0.571 -1.221,-0.412 0.049,0.161 0.146,1.463 0.146,1.463 0,0 -1.716,-0.213 -3.928,-0.388 C 6.549,5.195 -0.537,4.022 -0.562,3.428 -0.586,2.834 0,0 0,0" /></g><g
           transform="translate(236.2773,244.4932)"
           id="g390"><path
             id="path392"
             style="fill:#1e1925;fill-opacity:1;fill-rule:evenodd;stroke:none"
             d="m 0,0 c -0.539,-1.482 -0.954,-3.507 -0.954,-3.507 0,0 -8.255,-3.636 -7.087,-4.489 1.814,-1.326 8.535,0.388 10.916,0.898 l -0.014,3.784 z" /></g><g
           transform="translate(261.7119,245.4209)"
           id="g394"><path
             id="path396"
             style="fill:#1e1925;fill-opacity:1;fill-rule:evenodd;stroke:none"
             d="m 0,0 c 0.539,-1.482 0.953,-3.506 0.953,-3.506 0,0 8.255,-3.636 7.088,-4.489 -1.814,-1.326 -10.357,0.293 -10.354,1.033 l 0.012,3.783 z" /></g><g
           transform="translate(200.4668,365.4048)"
           id="g398"><path
             id="path400"
             style="fill:#eda08c;fill-opacity:1;fill-rule:evenodd;stroke:none"
             d="m 0,0 c 0,0 -0.449,-1.707 0.562,-2.852 1.01,-1.146 2.927,-1.46 2.927,-1.46 l 1.614,1.83 c 0,0 -1.487,3.201 -1.645,3.425 C 3.301,1.168 0,0 0,0" /></g><g
           transform="translate(242.0552,309.9834)"
           id="g402"><path
             id="path404"
             style="fill:#3f6c8f;fill-opacity:1;fill-rule:evenodd;stroke:none"
             d="m 0,0 c -3.415,-18.789 -4.929,-46.536 -6.731,-68.997 0,0 2.692,-0.066 3.814,0.192 4.506,18.719 8.563,38.021 13.068,56.74 2.408,-18.437 4.725,-37.953 7.134,-56.39 0.643,-0.201 2.621,0.284 3.325,0.387 0.704,0.101 1.009,66.127 0.879,66.903 C 21.36,-0.388 0,0 0,0" /></g><g
           transform="translate(252.2686,359.4868)"
           id="g406"><path
             id="path408"
             style="fill:#eda08c;fill-opacity:1;fill-rule:evenodd;stroke:none"
             d="M 0,0 C 0.158,-1.477 0.25,-6.241 -2.661,-7.279 -3.855,-7.705 -4.97,-8.62 -4.97,-8.62 -4.887,-13.112 5.57,-14.3 9.944,-10.236 L 8.21,-8.177 c -3.66,0.74 -2.086,6.905 -1.901,9.854 z" /></g><g
           transform="translate(304.1914,361.7305)"
           id="g410"><path
             id="path412"
             style="fill:#efaf9e;fill-opacity:1;fill-rule:evenodd;stroke:none"
             d="M 0,0 C 0,0 0.407,3.727 0.99,4.378 1.574,5.029 3.618,6.13 3.506,5.546 3.394,4.962 2.36,3.907 2.36,3.907 L 2.226,2.851 c 0,0 2.875,3.346 3.616,3.728 0.741,0.381 1.033,0.045 1.033,0.045 0,0 0.876,0.673 1.213,0.404 C 8.425,6.759 8.262,6.276 8.194,6.124 8.127,5.973 8.11,5.928 8.11,5.928 c 0,0 0.208,0.022 0.309,-0.36 0.102,-0.382 -0.09,-0.854 -0.09,-0.854 0,0 0.259,-0.112 0.202,-0.572 C 8.476,3.681 8.329,3.479 8.284,3.412 8.239,3.344 6.185,0.784 6.117,0.649 6.05,0.514 5.926,-0.114 5.05,-0.968 4.174,-1.821 1.878,-2.289 1.878,-2.289 -0.563,-1.012 0.701,-1.915 0,0" /></g><g
           transform="translate(242.8774,351.0381)"
           id="g414"><path
             id="path416"
             style="fill:#5dbffc;fill-opacity:1;fill-rule:evenodd;stroke:none"
             d="m 0,0 c -12.983,-2.134 -27.445,3.652 -36.933,12.31 l -1.989,-2.255 c 0,0 5.673,-8.975 16.993,-13.378 7.234,-3.677 16.922,-4.093 22.348,-3.986 0.47,-16.539 -2.42,-28.649 -3.084,-37.753 -0.287,-4.71 24.674,-7.99 24.658,-4.075 -0.467,13.408 -2.867,28.484 -1.379,40.815 5.57,-0.02 18.967,-0.04 25.697,3.383 11.319,4.401 16.992,13.377 16.992,13.377 l -1.989,2.254 C 51.271,1.527 35.653,-4.421 22.116,-1.162 l -4.515,1.433 c 0,0 -2.695,-2.694 -7.008,-2.155 C 6.281,-1.345 6.73,1.17 6.73,1.17 4.476,0.81 2.275,0.328 0,0" /></g><g
           transform="translate(262.6338,366.5981)"
           id="g418"><path
             id="path420"
             style="fill:#1e1925;fill-opacity:1;fill-rule:evenodd;stroke:none"
             d="m 0,0 c 0.168,-0.691 -0.702,-3.624 -1.45,-5.302 -0.749,-1.678 -2.885,-2.608 -2.869,-2.363 0.015,0.246 0.532,6.205 0.532,6.205 z" /></g><g
           transform="translate(247.8281,358.6348)"
           id="g422"><path
             id="path424"
             style="fill:#efaf9e;fill-opacity:1;fill-rule:evenodd;stroke:none"
             d="m 0,0 c 0.738,-4.09 2.523,-5.307 5.437,-3.888 2.494,1.216 4.302,3.388 5.489,5.712 0.79,-0.219 1.749,0.28 2.308,1.272 0.661,1.17 0.514,2.583 -0.325,3.155 -0.186,0.127 -0.392,0.202 -0.605,0.229 0.091,1.249 -0.016,2.427 -0.078,3.678 C 12.11,12.486 5.854,14.742 3.12,13.316 -0.294,11.537 -0.526,2.917 0,0" /></g><g
           transform="translate(257.873,367.749)"
           id="g426"><path
             id="path428"
             style="fill:#1e1925;fill-opacity:1;fill-rule:evenodd;stroke:none"
             d="m 0,0 c 0.269,-0.274 -0.347,-4.567 0.127,-4.585 0.474,-0.019 2.132,1.951 2.132,1.951 0,0 0.086,0.117 0.605,-0.229 0.519,-0.347 0.648,-0.948 0.648,-0.948 0,0 2.085,3.993 1.843,4.887 -0.242,0.894 -1.992,2.027 -1.992,2.027 0,0 -0.143,0.949 -1.129,2.046 C 1.249,6.246 -1.633,6.477 -5.479,7.032 -9.288,7.582 -12.007,5.198 -8.55,2.521 -5.37,0.058 0,0 0,0" /></g><g
           transform="translate(205.9546,376.6792)"
           id="g430"><path
             id="path432"
             style="fill:#faffff;fill-opacity:1;fill-rule:evenodd;stroke:none"
             d="M 0,0 2.135,-0.833 C 2.411,-0.94 2.549,-1.254 2.441,-1.531 L -4.532,-19.4 c -0.108,-0.276 -0.421,-0.413 -0.697,-0.306 l -2.135,0.833 c -0.277,0.108 -0.414,0.422 -0.306,0.698 l 6.972,17.869 C -0.59,-0.03 -0.276,0.108 0,0" /></g><g
           transform="translate(258.6133,369.0049)"
           id="g434"><path
             id="path436"
             style="fill:#1e1925;fill-opacity:1;fill-rule:evenodd;stroke:none"
             d="m 0,0 c -0.09,-0.135 -0.763,-1.213 -2.987,-1.752 -2.224,-0.539 -2.673,0.674 -2.673,0.674 0,0 -1.033,-0.382 -2.56,0.09 -1.528,0.471 -0.786,1.168 -0.786,1.168 0,0 -0.405,-0.72 -1.752,0.336 -1.348,1.056 -0.09,2.426 -0.09,2.426 l 0.808,1.235 c 0,0 -0.158,0.719 0.583,1.573 0.742,0.853 2.27,0.471 2.27,0.471 0,0 0.651,0.674 2.065,0.539 1.415,-0.135 2.201,-1.055 2.201,-1.055 0,0 1.123,0.449 2.314,0.247 1.19,-0.202 1.752,-1.236 1.752,-1.236 0,0 1.302,-0.179 1.886,-1.01 0.584,-0.831 0.113,-1.797 0.113,-1.797 0,0 1.325,-0.202 1.28,-1.258 C 4.379,-0.404 2.996,-1.82 1.52,-1.663 0.044,-1.505 0,0 0,0" /></g><g
           transform="translate(202.4336,367.769)"
           id="g438"><path
             id="path440"
             style="fill:#efaf9e;fill-opacity:1;fill-rule:evenodd;stroke:none"
             d="m 0,0 c 0.283,-0.261 0.326,-0.393 0.51,-0.865 0.36,-0.921 -0.809,-3.066 -1.64,-3.38 -0.831,-0.315 -1.213,-0.427 -1.392,0.583 -0.127,0.716 0.685,2.634 1.34,3.589 C -0.808,0.472 -0.591,0.544 0,0" /></g><g
           transform="translate(205.1494,362.498)"
           id="g442"><path
             id="path444"
             style="fill:#efaf9e;fill-opacity:1;fill-rule:evenodd;stroke:none"
             d="m 0,0 0.795,0.85 c 0,0 -0.542,2.333 -1.035,2.866 -0.493,0.534 -2.388,2.442 -2.605,2.24 -0.216,-0.202 -0.314,-0.741 0.18,-1.729 0.494,-0.988 1.459,-1.371 1.459,-1.371 0,0 -0.312,-1.661 0.046,-2.739 C -0.803,-0.962 0,0 0,0" /></g><g
           transform="translate(202.9189,370.7046)"
           id="g446"><path
             id="path448"
             style="fill:#e00022;fill-opacity:1;fill-rule:evenodd;stroke:none"
             d="M 0,0 3.223,-1.572 2.594,-3.1 -0.64,-1.696 Z" /></g><g
           transform="translate(204.9058,368.8735)"
           id="g450"><path
             id="path452"
             style="fill:#e00022;fill-opacity:1;fill-rule:evenodd;stroke:none"
             d="m 0,0 c 0.09,-0.135 0.651,-0.64 1.381,-1.831 0.73,-1.19 0.461,-4.053 0.652,-4.009 0.191,0.046 0.876,0.135 0.876,0.135 0,0 0.359,2.156 -0.247,3.56 -0.607,1.404 -2.033,2.28 -2.033,2.28 z" /></g><g
           transform="translate(204.9277,368.2446)"
           id="g454"><path
             id="path456"
             style="fill:#e00022;fill-opacity:1;fill-rule:evenodd;stroke:none"
             d="m 0,0 c 0.157,-0.079 0.943,-0.573 2.639,-0.505 1.695,0.067 2.347,0.831 2.347,0.831 L 4.582,0.943 c 0,0 -1.325,-0.673 -2.695,-0.685 C 0.517,0.247 0.045,0.404 0.045,0.404 Z" /></g><g
           transform="translate(404.542,172.4844)"
           id="g458"><path
             id="path460"
             style="fill:#efaf9e;fill-opacity:1;fill-rule:evenodd;stroke:none"
             d="M 0,0 C 0.348,0.146 1.537,0.575 1.839,0.722 2.141,0.867 4.918,2.141 5.319,2.173 5.524,2.188 6.697,2.024 7.799,1.681 8.406,1.491 9.825,0.752 9.981,0.693 10.299,0.575 9.683,0.108 9.286,0.132 8.825,0.159 7.579,0.856 7.579,0.856 7.402,0.846 7.233,0.839 7.074,0.836 7.227,0.743 7.346,0.662 7.395,0.611 7.597,0.4 7.878,-0.238 7.767,-0.327 7.654,-0.417 7.475,-0.568 7.029,-0.54 6.783,-0.524 6.303,-0.28 5.924,-0.044 5.629,-0.993 3.565,-1.882 2.686,-1.97 1.793,-2.06 1.121,-1.743 1.121,-1.743 Z" /></g><g
           transform="translate(396.667,202.1152)"
           id="g462"><path
             id="path464"
             style="fill:#c4aa2b;fill-opacity:1;fill-rule:evenodd;stroke:none"
             d="m 0,0 c 0.844,-0.456 -0.607,-22.627 -0.607,-22.627 l 10.093,-6.393 -1.123,-2.324 -13.68,7.13 c 0,0 -0.378,22.008 0.72,23.503 C -3.957,0.159 -0.714,0.386 0,0" /></g><g
           transform="translate(396.2939,218.8047)"
           id="g466"><path
             id="path468"
             style="fill:#1e1925;fill-opacity:1;fill-rule:evenodd;stroke:none"
             d="m 0,0 c -0.504,-0.457 -1.397,-3.243 -1.71,-4.974 -0.312,-1.73 0.875,-3.615 0.995,-3.414 0.12,0.203 2.922,5.193 2.922,5.193 z" /></g><g
           transform="translate(398.9971,208.5195)"
           id="g470"><path
             id="path472"
             style="fill:#eda08c;fill-opacity:1;fill-rule:evenodd;stroke:none"
             d="M 0,0 C 0,0 -0.816,-1.298 -1.105,-4.325 -1.394,-7.354 -1.98,-8.448 -1.98,-8.448 l -5.372,3.948 4.927,8.303 z" /></g><g
           transform="translate(406.0283,126.3213)"
           id="g474"><path
             id="path476"
             style="fill:#e6ebfe;fill-opacity:1;fill-rule:evenodd;stroke:none"
             d="m 0,0 h -97.49 c -4.616,0 -8.36,-5.226 -8.36,-11.672 0,-6.445 3.744,-11.671 8.36,-11.671 H 0 l -0.524,1.263 c -1.327,3.201 -2.01,6.764 -2.01,10.408 0,3.646 0.683,7.207 2.01,10.408 z" /></g><g
           transform="translate(308.9355,126.2168)"
           id="g478"><path
             id="path480"
             style="fill:#c19c7c;fill-opacity:1;fill-rule:evenodd;stroke:none"
             d="m 0,0 h 87.71 8.91 4.013 V 2.616 H 97.705 87.71 0 c -5.867,0 -10.272,-6.626 -10.272,-14.183 0,-7.558 4.405,-14.183 10.272,-14.183 h 87.006 10.699 2.928 v 2.615 H 96.62 87.006 0 c -4.575,0 -8.284,5.18 -8.284,11.568 C -8.284,-5.179 -4.575,0 0,0" /></g><g
           transform="translate(367.0498,114.6494)"
           id="g482"><path
             id="path484"
             style="fill:#d7dceb;fill-opacity:1;fill-rule:evenodd;stroke:none"
             d="m 0,0 c 0,6.446 3.742,11.672 8.358,11.672 h -66.87 c -4.616,0 -8.359,-5.226 -8.359,-11.672 0,-6.445 3.743,-11.671 8.359,-11.671 H 8.358 C 3.742,-11.671 0,-6.445 0,0" /></g><g
           transform="translate(302.0381,154.6875)"
           id="g486"><path
             id="path488"
             style="fill:#e6ebfe;fill-opacity:1;fill-rule:evenodd;stroke:none"
             d="m 0,0 h 97.49 c 4.616,0 8.359,-5.226 8.359,-11.672 0,-6.445 -3.743,-11.671 -8.359,-11.671 H 0 l 0.523,1.263 c 1.328,3.201 2.01,6.763 2.01,10.408 0,3.646 -0.682,7.207 -2.01,10.408 z" /></g><g
           transform="translate(399.1309,154.583)"
           id="g490"><path
             id="path492"
             style="fill:#303879;fill-opacity:1;fill-rule:evenodd;stroke:none"
             d="m 0,0 h -87.71 -8.911 -4.013 v 2.616 h 2.929 9.995 H 0 c 5.867,0 10.272,-6.626 10.272,-14.183 C 10.272,-19.125 5.867,-25.75 0,-25.75 h -87.006 -10.699 -2.929 v 2.615 h 4.013 9.615 H 0 c 4.575,0 8.284,5.18 8.284,11.568 C 8.284,-5.179 4.575,0 0,0" /></g><g
           transform="translate(341.0166,142.7656)"
           id="g494"><path
             id="path496"
             style="fill:#303879;fill-opacity:1;fill-rule:evenodd;stroke:none"
             d="m 0,0 c 0,6.847 -3.742,12.397 -8.359,12.397 h 66.871 c 4.616,0 8.358,-5.55 8.358,-12.397 0,-6.847 -3.742,-12.397 -8.358,-12.397 H -8.359 C -3.742,-12.397 0,-6.847 0,0" /></g><path
           id="path498"
           style="fill:#adb2c1;fill-opacity:1;fill-rule:evenodd;stroke:none"
           d="m 308.522,122.411 h 91.551 v 1.09 h -91.551 z" /><path
           id="path500"
           style="fill:#adb2c1;fill-opacity:1;fill-rule:evenodd;stroke:none"
           d="m 308.522,118.188 h 91.551 v 1.091 h -91.551 z" /><path
           id="path502"
           style="fill:#adb2c1;fill-opacity:1;fill-rule:evenodd;stroke:none"
           d="m 308.522,109.741 h 91.551 v 1.09 h -91.551 z" /><path
           id="path504"
           style="fill:#adb2c1;fill-opacity:1;fill-rule:evenodd;stroke:none"
           d="m 308.522,113.965 h 91.551 v 1.09 h -91.551 z" /><path
           id="path506"
           style="fill:#adb2c1;fill-opacity:1;fill-rule:evenodd;stroke:none"
           d="m 308.522,105.519 h 91.551 v 1.09 h -91.551 z" /><path
           id="path508"
           style="fill:#adb2c1;fill-opacity:1;fill-rule:evenodd;stroke:none"
           d="m 306.779,150.584 h 27.139 v 1.091 h -27.139 z" /><path
           id="path510"
           style="fill:#adb2c1;fill-opacity:1;fill-rule:evenodd;stroke:none"
           d="m 306.779,146.361 h 27.139 v 1.09 h -27.139 z" /><path
           id="path512"
           style="fill:#adb2c1;fill-opacity:1;fill-rule:evenodd;stroke:none"
           d="m 306.779,137.915 h 27.139 v 1.09 h -27.139 z" /><path
           id="path514"
           style="fill:#adb2c1;fill-opacity:1;fill-rule:evenodd;stroke:none"
           d="m 306.779,142.138 h 27.139 v 1.09 h -27.139 z" /><path
           id="path516"
           style="fill:#adb2c1;fill-opacity:1;fill-rule:evenodd;stroke:none"
           d="m 306.779,133.691 h 27.139 v 1.09 h -27.139 z" /><g
           transform="translate(174.5933,173.0391)"
           id="g518"><path
             id="path520"
             style="fill:#491925;fill-opacity:1;fill-rule:evenodd;stroke:none"
             d="M 0,0 H -4.07 V 14.472 H -31.616 V 0 h -4.072 v 16.508 c 0,1.125 0.911,2.035 2.036,2.035 H -2.036 C -0.91,18.543 0,17.633 0,16.508 Z" /></g><g
           transform="translate(173.7065,173.9258)"
           id="g522"><path
             id="path524"
             style="fill:#48222f;fill-opacity:1;fill-rule:evenodd;stroke:none"
             d="m 0,0 v 15.621 c 0,0.636 -0.513,1.15 -1.149,1.15 h -31.616 c -0.636,0 -1.15,-0.514 -1.15,-1.15 V 0 h 2.299 V 14.472 H -2.297 L -2.297,0 Z" /></g><g
           transform="translate(210.1006,106.8594)"
           id="g526"><path
             id="path528"
             style="fill:#54598f;fill-opacity:1;fill-rule:evenodd;stroke:none"
             d="m 0,0 c 0,-3.518 -2.934,-6.393 -6.522,-6.393 h -93.658 c -3.588,0 -6.522,2.875 -6.522,6.393 v 65.501 c 0,3.516 2.934,6.395 6.522,6.395 H -6.522 C -2.934,71.896 0,69.017 0,65.501 Z" /></g><g
           transform="translate(207.6963,113.1074)"
           id="g530"><path
             id="path532"
             style="fill:#48426d;fill-opacity:1;fill-rule:evenodd;stroke:none"
             d="M 0,0 C 0,0.087 -0.053,0.16 -0.126,0.191 -0.266,0.251 -0.417,0.146 -0.417,0 v -2.083 c 0,-0.086 0.054,-0.16 0.126,-0.191 C -0.151,-2.334 0,-2.229 0,-2.083 Z m 0,4.165 c 0,0.087 -0.053,0.16 -0.126,0.191 -0.14,0.06 -0.291,-0.044 -0.291,-0.191 V 2.082 c 0,-0.087 0.054,-0.16 0.126,-0.191 C -0.151,1.831 0,1.936 0,2.082 Z M 0,8.33 C 0,8.417 -0.053,8.49 -0.126,8.521 -0.266,8.581 -0.417,8.477 -0.417,8.33 V 6.247 c 0,-0.087 0.054,-0.16 0.126,-0.191 C -0.151,5.996 0,6.101 0,6.247 Z m 0,4.165 c 0,0.087 -0.053,0.16 -0.126,0.192 -0.14,0.059 -0.291,-0.045 -0.291,-0.192 v -2.082 c 0,-0.088 0.054,-0.161 0.126,-0.191 C -0.151,10.161 0,10.266 0,10.413 Z m 0,4.165 c 0,0.087 -0.053,0.16 -0.126,0.192 -0.14,0.059 -0.291,-0.045 -0.291,-0.192 v -2.082 c 0,-0.087 0.054,-0.161 0.126,-0.191 C -0.151,14.326 0,14.431 0,14.578 Z m 0,4.165 c 0,0.087 -0.053,0.16 -0.126,0.192 -0.14,0.059 -0.291,-0.045 -0.291,-0.192 v -2.082 c 0,-0.087 0.054,-0.161 0.126,-0.191 C -0.151,18.491 0,18.597 0,18.743 Z m 0,4.165 c 0,0.087 -0.053,0.16 -0.126,0.192 -0.14,0.06 -0.291,-0.045 -0.291,-0.192 v -2.082 c 0,-0.087 0.054,-0.161 0.126,-0.191 C -0.151,22.656 0,22.762 0,22.908 Z m 0,4.165 c 0,0.087 -0.053,0.16 -0.126,0.192 -0.14,0.06 -0.291,-0.045 -0.291,-0.192 v -2.082 c 0,-0.087 0.054,-0.16 0.126,-0.191 C -0.151,26.822 0,26.927 0,27.073 Z m 0,4.165 c 0,0.087 -0.053,0.16 -0.126,0.192 -0.14,0.06 -0.291,-0.045 -0.291,-0.192 v -2.082 c 0,-0.087 0.054,-0.16 0.126,-0.191 C -0.151,30.987 0,31.092 0,31.238 Z m 0,4.165 c 0,0.087 -0.053,0.161 -0.126,0.192 -0.14,0.06 -0.291,-0.045 -0.291,-0.192 v -2.082 c 0,-0.087 0.054,-0.16 0.126,-0.191 C -0.151,35.152 0,35.257 0,35.403 Z m 0,4.165 c 0,0.087 -0.053,0.161 -0.126,0.192 -0.14,0.06 -0.291,-0.044 -0.291,-0.192 v -2.082 c 0,-0.087 0.054,-0.16 0.126,-0.191 C -0.151,39.317 0,39.422 0,39.568 Z m 0,4.166 c 0,0.087 -0.053,0.161 -0.126,0.191 -0.14,0.06 -0.291,-0.044 -0.291,-0.191 v -2.083 c 0,-0.087 0.054,-0.16 0.126,-0.191 C -0.151,43.482 0,43.587 0,43.733 Z m 0,4.165 c 0,0.087 -0.053,0.161 -0.126,0.192 -0.14,0.059 -0.291,-0.045 -0.291,-0.192 v -2.083 c 0,-0.086 0.054,-0.16 0.126,-0.191 C -0.151,47.647 0,47.752 0,47.898 Z m 0,4.165 c 0,0.087 -0.053,0.161 -0.126,0.192 -0.14,0.059 -0.291,-0.045 -0.291,-0.192 v -2.083 c 0,-0.086 0.054,-0.16 0.126,-0.191 C -0.151,51.813 0,51.917 0,52.063 Z m 0,4.166 c 0,0.086 -0.053,0.16 -0.126,0.191 -0.14,0.06 -0.291,-0.045 -0.291,-0.191 v -2.083 c 0,-0.087 0.054,-0.161 0.126,-0.192 C -0.151,55.978 0,56.082 0,56.229 Z m -1.399,3.927 c -0.193,0.165 -0.482,-0.105 -0.27,-0.317 0.489,-0.392 0.891,-1.017 1.086,-1.61 0.105,-0.281 0.484,-0.106 0.396,0.126 -0.208,0.655 -0.674,1.371 -1.212,1.801 m -4.072,1.004 c -0.087,0 -0.16,-0.054 -0.191,-0.126 -0.06,-0.139 0.044,-0.291 0.191,-0.291 0.428,0 1.471,0.059 2.039,-0.063 0.239,-0.059 0.373,0.336 0.079,0.409 -0.621,0.128 -1.588,0.071 -2.118,0.071 m -4.165,0 c -0.087,0 -0.16,-0.054 -0.191,-0.126 -0.06,-0.139 0.044,-0.291 0.191,-0.291 h 2.083 c 0.087,0 0.16,0.054 0.191,0.127 0.06,0.14 -0.045,0.29 -0.191,0.29 z m -4.165,0 c -0.087,0 -0.16,-0.054 -0.191,-0.126 -0.06,-0.139 0.044,-0.291 0.191,-0.291 h 2.083 c 0.087,0 0.16,0.054 0.191,0.127 0.06,0.14 -0.045,0.29 -0.191,0.29 z m -4.165,0 c -0.087,0 -0.16,-0.054 -0.191,-0.126 -0.06,-0.139 0.044,-0.291 0.191,-0.291 h 2.083 c 0.087,0 0.16,0.054 0.191,0.127 0.06,0.14 -0.045,0.29 -0.191,0.29 z m -4.165,0 c -0.087,0 -0.161,-0.054 -0.192,-0.126 -0.059,-0.139 0.045,-0.291 0.192,-0.291 h 2.082 c 0.088,0 0.161,0.054 0.192,0.127 0.06,0.14 -0.045,0.29 -0.192,0.29 z m -4.165,0 c -0.087,0 -0.161,-0.054 -0.192,-0.126 -0.059,-0.139 0.045,-0.291 0.192,-0.291 h 2.082 c 0.087,0 0.161,0.054 0.192,0.127 0.06,0.14 -0.045,0.29 -0.192,0.29 z m -4.165,0 c -0.087,0 -0.161,-0.054 -0.192,-0.126 -0.059,-0.139 0.045,-0.291 0.192,-0.291 h 2.082 c 0.087,0 0.161,0.054 0.192,0.127 0.06,0.14 -0.045,0.29 -0.192,0.29 z m -4.165,0 c -0.087,0 -0.161,-0.054 -0.192,-0.126 -0.059,-0.139 0.045,-0.291 0.192,-0.291 h 2.082 c 0.087,0 0.161,0.054 0.191,0.127 0.061,0.14 -0.044,0.29 -0.191,0.29 z m -4.166,0 c -0.086,0 -0.16,-0.054 -0.191,-0.126 -0.06,-0.139 0.045,-0.291 0.191,-0.291 h 2.083 c 0.087,0 0.16,0.054 0.191,0.127 0.06,0.14 -0.045,0.29 -0.191,0.29 z m -4.165,0 c -0.086,0 -0.16,-0.054 -0.191,-0.126 -0.06,-0.139 0.045,-0.291 0.191,-0.291 h 2.083 c 0.087,0 0.16,0.054 0.191,0.127 0.06,0.14 -0.045,0.29 -0.191,0.29 z m -4.165,0 c -0.086,0 -0.16,-0.054 -0.191,-0.126 -0.06,-0.139 0.044,-0.291 0.191,-0.291 h 2.083 c 0.087,0 0.16,0.054 0.191,0.127 0.06,0.14 -0.045,0.29 -0.191,0.29 z m -4.165,0 c -0.087,0 -0.16,-0.054 -0.191,-0.126 -0.06,-0.139 0.044,-0.291 0.191,-0.291 h 2.083 c 0.087,0 0.16,0.054 0.191,0.127 0.06,0.14 -0.045,0.29 -0.191,0.29 z m -4.165,0 c -0.087,0 -0.16,-0.054 -0.192,-0.126 -0.059,-0.139 0.045,-0.291 0.192,-0.291 h 2.082 c 0.088,0 0.161,0.054 0.192,0.127 0.06,0.14 -0.045,0.29 -0.192,0.29 z m -4.165,0 c -0.087,0 -0.16,-0.054 -0.192,-0.126 -0.059,-0.139 0.045,-0.291 0.192,-0.291 h 2.082 c 0.087,0 0.161,0.054 0.192,0.127 0.06,0.14 -0.045,0.29 -0.192,0.29 z m -4.165,0 c -0.087,0 -0.16,-0.054 -0.192,-0.126 -0.059,-0.139 0.045,-0.291 0.192,-0.291 h 2.082 c 0.087,0 0.161,0.054 0.192,0.127 0.06,0.14 -0.045,0.29 -0.192,0.29 z m -4.165,0 c -0.087,0 -0.16,-0.054 -0.192,-0.126 -0.059,-0.139 0.045,-0.291 0.192,-0.291 h 2.082 c 0.087,0 0.16,0.054 0.192,0.127 0.06,0.14 -0.045,0.29 -0.192,0.29 z m -4.165,0 c -0.087,0 -0.161,-0.054 -0.192,-0.126 -0.06,-0.139 0.045,-0.291 0.192,-0.291 h 2.082 c 0.087,0 0.16,0.054 0.192,0.127 0.06,0.14 -0.045,0.29 -0.192,0.29 z m -4.165,0 c -0.087,0 -0.161,-0.054 -0.192,-0.126 -0.06,-0.139 0.045,-0.291 0.192,-0.291 h 2.082 c 0.087,0 0.16,0.054 0.192,0.127 0.059,0.14 -0.045,0.29 -0.192,0.29 z m -4.165,0 c -0.087,0 -0.161,-0.054 -0.192,-0.126 -0.06,-0.139 0.045,-0.291 0.192,-0.291 h 2.082 c 0.087,0 0.16,0.054 0.192,0.127 0.059,0.14 -0.045,0.29 -0.192,0.29 z m -4.165,0 c -0.087,0 -0.161,-0.054 -0.192,-0.126 -0.06,-0.139 0.045,-0.291 0.192,-0.291 h 2.082 c 0.087,0 0.16,0.054 0.192,0.127 0.059,0.14 -0.045,0.29 -0.192,0.29 z m -4.166,0 c -0.087,0 -0.16,-0.054 -0.191,-0.126 -0.06,-0.139 0.045,-0.291 0.191,-0.291 h 2.083 c 0.087,0 0.16,0.054 0.191,0.127 0.06,0.14 -0.044,0.29 -0.191,0.29 z m -4.165,0 c -0.087,0 -0.16,-0.054 -0.191,-0.126 -0.06,-0.139 0.045,-0.291 0.191,-0.291 h 2.083 c 0.086,0 0.16,0.054 0.191,0.127 0.06,0.14 -0.044,0.29 -0.191,0.29 z m -4.165,0 c -0.087,0 -0.16,-0.054 -0.191,-0.126 -0.06,-0.139 0.044,-0.291 0.191,-0.291 h 2.082 c 0.087,0 0.161,0.054 0.192,0.127 0.06,0.14 -0.045,0.29 -0.192,0.29 z m -3.893,-1.514 c -0.182,-0.254 0.183,-0.458 0.32,-0.266 0.443,0.536 0.951,0.872 1.592,1.128 0.26,0.097 0.11,0.486 -0.144,0.391 -0.7,-0.271 -1.288,-0.67 -1.768,-1.253 m -0.898,-4.098 c 0,-0.087 0.054,-0.16 0.126,-0.192 0.14,-0.059 0.291,0.045 0.291,0.192 0,0.626 -0.055,1.399 0.027,2.056 0.034,0.273 -0.379,0.323 -0.413,0.052 -0.083,-0.676 -0.031,-1.461 -0.031,-2.108 m 0,-4.165 c 0,-0.087 0.054,-0.16 0.126,-0.192 0.14,-0.059 0.291,0.045 0.291,0.192 v 2.083 c 0,0.087 -0.053,0.16 -0.126,0.191 -0.14,0.06 -0.291,-0.045 -0.291,-0.191 z m 0,-4.165 c 0,-0.087 0.054,-0.16 0.126,-0.192 0.14,-0.059 0.291,0.045 0.291,0.192 v 2.083 c 0,0.087 -0.053,0.16 -0.126,0.191 -0.14,0.06 -0.291,-0.045 -0.291,-0.191 z m 0,-4.165 c 0,-0.087 0.054,-0.16 0.126,-0.192 0.14,-0.059 0.291,0.045 0.291,0.192 v 2.083 c 0,0.087 -0.053,0.16 -0.126,0.191 -0.14,0.06 -0.291,-0.045 -0.291,-0.191 z m 0,-4.165 c 0,-0.087 0.054,-0.16 0.126,-0.192 0.14,-0.059 0.291,0.045 0.291,0.192 v 2.082 c 0,0.088 -0.053,0.161 -0.126,0.192 -0.14,0.06 -0.291,-0.045 -0.291,-0.192 z m 0,-4.165 c 0,-0.087 0.054,-0.16 0.126,-0.192 0.14,-0.059 0.291,0.045 0.291,0.192 v 2.082 c 0,0.088 -0.053,0.161 -0.126,0.192 -0.14,0.06 -0.291,-0.045 -0.291,-0.192 z m 0,-4.165 c 0,-0.087 0.054,-0.161 0.126,-0.192 0.14,-0.059 0.291,0.045 0.291,0.192 v 2.082 c 0,0.087 -0.053,0.161 -0.126,0.192 -0.14,0.06 -0.291,-0.045 -0.291,-0.192 z m 0,-4.165 c 0,-0.087 0.054,-0.161 0.126,-0.192 0.14,-0.059 0.291,0.045 0.291,0.192 v 2.082 c 0,0.087 -0.053,0.161 -0.126,0.192 -0.14,0.06 -0.291,-0.045 -0.291,-0.192 z m 0,-4.165 c 0,-0.087 0.054,-0.161 0.126,-0.192 0.14,-0.06 0.291,0.045 0.291,0.192 v 2.082 c 0,0.086 -0.053,0.16 -0.126,0.192 -0.14,0.06 -0.291,-0.046 -0.291,-0.192 z m 0,-4.165 c 0,-0.087 0.054,-0.161 0.126,-0.192 0.14,-0.06 0.291,0.045 0.291,0.192 v 2.082 c 0,0.086 -0.053,0.16 -0.126,0.191 -0.14,0.06 -0.291,-0.045 -0.291,-0.191 z m 0,-4.166 c 0,-0.086 0.054,-0.16 0.126,-0.191 0.14,-0.06 0.291,0.045 0.291,0.191 v 2.082 c 0,0.087 -0.053,0.161 -0.126,0.192 -0.14,0.059 -0.291,-0.045 -0.291,-0.192 z m 0,-4.165 c 0,-0.086 0.054,-0.16 0.126,-0.191 0.14,-0.061 0.291,0.044 0.291,0.191 v 2.082 c 0,0.087 -0.053,0.161 -0.126,0.192 -0.14,0.059 -0.291,-0.045 -0.291,-0.192 z m 0,-4.165 c 0,-0.087 0.054,-0.16 0.126,-0.191 0.14,-0.061 0.291,0.044 0.291,0.191 v 2.082 c 0,0.087 -0.053,0.161 -0.126,0.192 -0.14,0.059 -0.291,-0.045 -0.291,-0.192 z m 0,-4.165 c 0,-0.088 0.054,-0.16 0.126,-0.192 0.14,-0.06 0.291,0.045 0.291,0.192 v 2.082 c 0,0.087 -0.053,0.161 -0.126,0.192 -0.14,0.059 -0.291,-0.045 -0.291,-0.192 z m 0,-4.166 c 0,-0.087 0.054,-0.16 0.126,-0.19 0.14,-0.061 0.291,0.044 0.291,0.19 v 2.083 c 0,0.087 -0.053,0.16 -0.126,0.192 -0.14,0.059 -0.291,-0.045 -0.291,-0.192 z m 0,-4.165 c 0,-0.087 0.054,-0.16 0.126,-0.191 0.14,-0.06 0.291,0.045 0.291,0.191 v 2.083 c 0,0.087 -0.053,0.16 -0.126,0.192 -0.14,0.059 -0.291,-0.045 -0.291,-0.192 z m 1.049,-4.051 c 0.208,-0.209 0.486,0.102 0.306,0.282 -0.43,0.463 -0.774,1.102 -0.878,1.727 -0.069,0.274 -0.445,0.199 -0.411,-0.073 0.14,-0.73 0.477,-1.392 0.983,-1.936 m 3.962,-1.34 c 0.087,0 0.16,0.053 0.191,0.127 0.06,0.139 -0.045,0.29 -0.191,0.29 h -0.893 c -0.369,0 -0.759,0.055 -1.11,0.168 -0.23,0.086 -0.408,-0.291 -0.124,-0.398 0.38,-0.125 0.834,-0.187 1.234,-0.187 z m 4.165,0 c 0.087,0 0.16,0.053 0.191,0.127 0.06,0.139 -0.045,0.29 -0.191,0.29 h -2.083 c -0.087,0 -0.16,-0.054 -0.191,-0.126 -0.06,-0.14 0.045,-0.291 0.191,-0.291 z m 4.165,0 c 0.087,0 0.16,0.053 0.191,0.127 0.06,0.139 -0.045,0.29 -0.191,0.29 h -2.083 c -0.087,0 -0.16,-0.054 -0.191,-0.126 -0.06,-0.14 0.045,-0.291 0.191,-0.291 z m 4.165,0 c 0.087,0 0.16,0.053 0.191,0.127 0.06,0.139 -0.044,0.29 -0.191,0.29 h -2.083 c -0.087,0 -0.16,-0.054 -0.191,-0.126 -0.06,-0.14 0.045,-0.291 0.191,-0.291 z m 4.165,0 c 0.087,0 0.16,0.053 0.191,0.127 0.06,0.139 -0.044,0.29 -0.191,0.29 h -2.083 c -0.087,0 -0.16,-0.054 -0.191,-0.126 -0.06,-0.14 0.045,-0.291 0.191,-0.291 z m 4.165,0 c 0.087,0 0.161,0.053 0.192,0.127 0.059,0.139 -0.045,0.29 -0.192,0.29 h -2.083 c -0.087,0 -0.159,-0.054 -0.191,-0.126 -0.06,-0.14 0.045,-0.291 0.191,-0.291 z m 4.165,0 c 0.087,0 0.161,0.053 0.191,0.127 0.06,0.139 -0.044,0.29 -0.191,0.29 h -2.082 c -0.087,0 -0.16,-0.054 -0.192,-0.126 -0.06,-0.14 0.045,-0.291 0.192,-0.291 z m 4.165,0 c 0.087,0 0.161,0.053 0.192,0.127 0.059,0.139 -0.045,0.29 -0.192,0.29 h -2.082 c -0.087,0 -0.16,-0.054 -0.191,-0.126 -0.061,-0.14 0.044,-0.291 0.191,-0.291 z m 4.165,0 c 0.087,0 0.161,0.053 0.192,0.127 0.059,0.139 -0.045,0.29 -0.192,0.29 h -2.082 c -0.087,0 -0.16,-0.054 -0.191,-0.126 -0.06,-0.14 0.044,-0.291 0.191,-0.291 z m 4.166,0 c 0.086,0 0.16,0.053 0.191,0.127 0.06,0.139 -0.045,0.29 -0.191,0.29 h -2.083 c -0.087,0 -0.16,-0.054 -0.191,-0.126 -0.06,-0.14 0.045,-0.291 0.191,-0.291 z m 4.165,0 c 0.086,0 0.16,0.053 0.191,0.127 0.06,0.139 -0.045,0.29 -0.191,0.29 h -2.083 c -0.087,0 -0.16,-0.054 -0.191,-0.126 -0.06,-0.14 0.045,-0.291 0.191,-0.291 z m 4.165,0 c 0.087,0 0.16,0.053 0.191,0.127 0.06,0.139 -0.045,0.29 -0.191,0.29 h -2.083 c -0.087,0 -0.16,-0.054 -0.191,-0.126 -0.06,-0.14 0.045,-0.291 0.191,-0.291 z m 4.165,0 c 0.087,0 0.16,0.053 0.191,0.127 0.06,0.139 -0.045,0.29 -0.191,0.29 h -2.083 c -0.087,0 -0.16,-0.054 -0.191,-0.126 -0.06,-0.14 0.045,-0.291 0.191,-0.291 z m 4.165,0 c 0.087,0 0.16,0.053 0.191,0.127 0.06,0.139 -0.044,0.29 -0.191,0.29 h -2.083 c -0.087,0 -0.16,-0.054 -0.191,-0.126 -0.06,-0.14 0.045,-0.291 0.191,-0.291 z m 4.165,0 c 0.087,0 0.16,0.053 0.191,0.127 0.06,0.139 -0.044,0.29 -0.191,0.29 h -2.082 c -0.087,0 -0.161,-0.054 -0.192,-0.126 -0.06,-0.14 0.045,-0.291 0.192,-0.291 z m 4.165,0 c 0.087,0 0.16,0.053 0.192,0.127 0.059,0.139 -0.045,0.29 -0.192,0.29 h -2.082 c -0.087,0 -0.16,-0.054 -0.192,-0.126 -0.06,-0.14 0.045,-0.291 0.192,-0.291 z m 4.165,0 c 0.087,0 0.16,0.053 0.192,0.127 0.059,0.139 -0.045,0.29 -0.192,0.29 h -2.082 c -0.087,0 -0.16,-0.054 -0.192,-0.126 -0.06,-0.14 0.045,-0.291 0.192,-0.291 z m 4.165,0 c 0.087,0 0.16,0.053 0.192,0.127 0.06,0.139 -0.045,0.29 -0.192,0.29 h -2.082 c -0.087,0 -0.16,-0.054 -0.192,-0.126 -0.06,-0.14 0.045,-0.291 0.192,-0.291 z m 4.165,0 c 0.087,0 0.161,0.053 0.192,0.127 0.06,0.139 -0.045,0.29 -0.192,0.29 h -2.082 c -0.087,0 -0.16,-0.054 -0.192,-0.126 -0.059,-0.14 0.045,-0.291 0.192,-0.291 z m 4.165,0 c 0.087,0 0.161,0.053 0.192,0.127 0.06,0.139 -0.045,0.29 -0.192,0.29 h -2.082 c -0.087,0 -0.16,-0.054 -0.192,-0.126 -0.06,-0.14 0.045,-0.291 0.192,-0.291 z m 4.165,0 c 0.087,0 0.161,0.053 0.192,0.127 0.06,0.139 -0.045,0.29 -0.192,0.29 h -2.082 c -0.086,0 -0.16,-0.054 -0.191,-0.126 -0.06,-0.14 0.044,-0.291 0.191,-0.291 z m 4.165,0 c 0.088,0 0.161,0.053 0.192,0.127 0.06,0.139 -0.045,0.29 -0.192,0.29 h -2.082 c -0.086,0 -0.16,-0.054 -0.191,-0.126 -0.06,-0.14 0.045,-0.291 0.191,-0.291 z m 4.166,0 c 0.087,0 0.16,0.053 0.191,0.127 0.06,0.139 -0.044,0.29 -0.191,0.29 h -2.082 c -0.087,0 -0.161,-0.054 -0.192,-0.126 -0.06,-0.14 0.045,-0.291 0.192,-0.291 z m 4.023,1.158 c 0.204,0.204 -0.102,0.486 -0.286,0.302 -0.488,-0.466 -1.061,-0.77 -1.713,-0.936 -0.27,-0.067 -0.164,-0.471 0.098,-0.405 0.718,0.18 1.366,0.527 1.901,1.039 M 0,-6.248 v 2.083 c 0,0.087 -0.053,0.16 -0.126,0.191 -0.14,0.06 -0.291,-0.045 -0.291,-0.191 0,-0.672 0.113,-2.09 -0.107,-2.941 -0.068,-0.274 0.337,-0.365 0.402,-0.107 0.084,0.309 0.12,0.646 0.122,0.965" /></g><g
           transform="translate(101.1724,179.6318)"
           id="g534"><path
             id="path536"
             style="fill:#6d79b7;fill-opacity:1;fill-rule:evenodd;stroke:none"
             d="m 0,0 c 0.318,-20.288 25.072,-36.669 55.578,-36.669 30.504,0 55.258,16.381 55.576,36.669 z" /></g><g
           transform="translate(161.9722,133.8086)"
           id="g538"><path
             id="path540"
             style="fill:#faf2ff;fill-opacity:1;fill-rule:evenodd;stroke:none"
             d="m 0,0 h -10.445 c -0.71,0 -1.286,0.575 -1.286,1.285 v 14.092 c 0,0.71 0.576,1.285 1.286,1.285 H 0 c 0.71,0 1.286,-0.575 1.286,-1.285 V 1.285 C 1.286,0.575 0.71,0 0,0" /></g><g
           transform="translate(159.8164,135.6299)"
           id="g542"><path
             id="path544"
             style="fill:#bf99a8;fill-opacity:1;fill-rule:evenodd;stroke:none"
             d="m 0,0 h -6.134 c -0.894,0 -1.619,0.726 -1.619,1.62 v 9.779 c 0,0.895 0.725,1.621 1.619,1.621 H 0 c 0.895,0 1.62,-0.726 1.62,-1.621 V 1.62 C 1.62,0.726 0.895,0 0,0" /></g><g
           transform="translate(165.5259,230.251)"
           id="g546"><path
             id="path548"
             style="fill:#393a48;fill-opacity:1;fill-rule:evenodd;stroke:none"
             d="M 0,0 83.467,12.07 166.933,0 V -1.996 L 83.467,-14.067 0,-1.996 Z" /></g><g
           transform="translate(165.5259,228.2549)"
           id="g550"><path
             id="path552"
             style="fill:#1e1925;fill-opacity:1;fill-rule:evenodd;stroke:none"
             d="M 0,0 83.467,12.071 166.933,0 83.467,-12.071 Z" /></g><g
           transform="translate(212.7383,225.9639)"
           id="g554"><path
             id="path556"
             style="fill:#292e3d;fill-opacity:1;fill-rule:evenodd;stroke:none"
             d="m 0,0 h 72.509 l 3.692,-29.182 H -3.692 Z" /></g><g
           transform="translate(248.9883,220.0088)"
           id="g558"><path
             id="path560"
             style="fill:#292e3d;fill-opacity:1;fill-rule:evenodd;stroke:none"
             d="m 0,0 c 19.969,0 36.255,2.634 36.255,5.864 0,3.23 -16.286,5.865 -36.255,5.865 -19.968,0 -36.254,-2.635 -36.254,-5.865 C -36.254,2.634 -19.968,0 0,0" /></g><g
           transform="translate(248.9927,190.9189)"
           id="g562"><path
             id="path564"
             style="fill:#151a29;fill-opacity:1;fill-rule:evenodd;stroke:none"
             d="m 0,0 c 22.002,0 39.947,2.634 39.947,5.864 0,3.23 -17.945,5.864 -39.947,5.864 -22.002,0 -39.947,-2.634 -39.947,-5.864 C -39.947,2.634 -22.002,0 0,0" /></g><g
           transform="translate(321.0312,231.9033)"
           id="g566"><path
             id="path568"
             style="fill:#de1922;fill-opacity:1;fill-rule:evenodd;stroke:none"
             d="M 0,0 V -11.54 -63.1 c 0,-0.685 0.562,-1.247 1.247,-1.247 h 10e-4 c 0.686,0 1.247,0.561 1.247,1.247 V 0 1.248 c 0,0.686 -0.561,1.247 -1.247,1.247 H 0 -17.253 Z" /></g><g
           transform="translate(322.1943,183.5234)"
           id="g570"><path
             id="path572"
             style="fill:#de1922;fill-opacity:1;fill-rule:evenodd;stroke:none"
             d="M 0,0 C 4.359,0 7.974,-19.883 -0.053,-27.885 -8.127,-19.834 -4.388,0 0,0" /></g><g
           transform="translate(321.3838,184.8906)"
           id="g574"><path
             id="path576"
             style="fill:#e4574e;fill-opacity:1;fill-rule:evenodd;stroke:none"
             d="m 0,0 h 1.716 c 0.642,0 1.169,-0.526 1.169,-1.169 0,-0.643 -0.527,-1.17 -1.169,-1.17 H 0 c -0.644,0 -1.17,0.527 -1.17,1.17 C -1.17,-0.526 -0.644,0 0,0" /></g><g
           transform="translate(283.2568,221.1396)"
           id="g578"><path
             id="path580"
             style="fill:#2e3342;fill-opacity:1;fill-rule:evenodd;stroke:none"
             d="m 0,0 c -19.642,-7.785 -43.483,-12.346 -69.186,-12.346 -1.171,0 -2.338,0.009 -3.502,0.029 l -1.495,-11.818 c 0.795,3.136 18.363,5.642 39.919,5.642 21.556,0 39.123,-2.506 39.918,-5.642 L 2.554,0.369 2.474,1.006 C 1.656,0.665 0.832,0.329 0,0" /></g><path
           id="path582"
           style="fill:#172751;fill-opacity:1;fill-rule:evenodd;stroke:none"
           d="m 187.889,100.467 h 122.159 v 87.599 H 187.889 Z" /><path
           id="path584"
           style="fill:#314b8f;fill-opacity:1;fill-rule:evenodd;stroke:none"
           d="m 187.889,101.565 h 122.159 v 87.599 H 187.889 Z" /><g
           transform="translate(189.4287,154.5537)"
           id="g586"><path
             id="path588"
             style="fill:#e6ebfe;fill-opacity:1;fill-rule:evenodd;stroke:none"
             d="m 0,0 v -43.611 c 8.655,2.099 18.819,3.308 29.691,3.308 10.872,0 21.035,-1.209 29.691,-3.308 V 0 39.005 C 50.726,41.104 40.563,42.313 29.691,42.313 18.819,42.313 8.655,41.104 0,39.005 Z" /></g><g
           transform="translate(248.8105,154.5537)"
           id="g590"><path
             id="path592"
             style="fill:#f5f8ff;fill-opacity:1;fill-rule:evenodd;stroke:none"
             d="m 0,0 v -43.611 c 8.655,2.099 18.819,3.308 29.691,3.308 10.872,0 21.036,-1.209 29.691,-3.308 V 0 39.005 C 50.727,41.104 40.563,42.313 29.691,42.313 18.819,42.313 8.655,41.104 0,39.005 Z" /></g><g
           transform="translate(189.4365,108.5557)"
           id="g594"><path
             id="path596"
             style="fill:#e9d79f;fill-opacity:1;fill-rule:evenodd;stroke:none"
             d="M 0,0 C 8.669,2.14 18.848,3.403 29.74,3.472 40.571,3.538 50.71,2.414 59.374,0.403 L 59.366,1.692 C 50.723,3.689 40.616,4.806 29.823,4.739 18.892,4.672 8.682,3.398 -0.008,1.245 Z" /></g><g
           transform="translate(189.4365,106.5186)"
           id="g598"><path
             id="path600"
             style="fill:#e9d79f;fill-opacity:1;fill-rule:evenodd;stroke:none"
             d="M 0,0 C 8.669,2.14 18.848,3.404 29.74,3.472 40.571,3.539 50.71,2.414 59.374,0.403 L 59.366,1.692 C 50.723,3.69 40.616,4.807 29.823,4.739 18.892,4.672 8.682,3.399 -0.008,1.245 Z" /></g><g
           transform="translate(189.4365,104.4814)"
           id="g602"><path
             id="path604"
             style="fill:#e9d79f;fill-opacity:1;fill-rule:evenodd;stroke:none"
             d="M 0,0 C 8.669,2.141 18.848,3.404 29.74,3.472 40.571,3.539 50.71,2.415 59.374,0.404 L 59.366,1.693 C 50.723,3.69 40.616,4.807 29.823,4.74 18.892,4.672 8.682,3.399 -0.008,1.246 Z" /></g><g
           transform="translate(308.1846,108.5557)"
           id="g606"><path
             id="path608"
             style="fill:#ecd28a;fill-opacity:1;fill-rule:evenodd;stroke:none"
             d="M 0,0 C -8.669,2.14 -18.848,3.403 -29.74,3.472 -40.571,3.538 -50.711,2.414 -59.374,0.403 l 0.008,1.289 c 8.643,1.997 18.75,3.114 29.543,3.047 10.93,-0.067 21.141,-1.341 29.831,-3.494 z" /></g><g
           transform="translate(308.1846,106.5186)"
           id="g610"><path
             id="path612"
             style="fill:#ecd28a;fill-opacity:1;fill-rule:evenodd;stroke:none"
             d="M 0,0 C -8.669,2.14 -18.848,3.404 -29.74,3.472 -40.571,3.539 -50.711,2.414 -59.374,0.403 l 0.008,1.289 c 8.643,1.998 18.75,3.115 29.543,3.047 10.93,-0.067 21.141,-1.34 29.831,-3.494 z" /></g><g
           transform="translate(308.1846,104.4814)"
           id="g614"><path
             id="path616"
             style="fill:#ecd28a;fill-opacity:1;fill-rule:evenodd;stroke:none"
             d="M 0,0 C -8.669,2.141 -18.848,3.404 -29.74,3.472 -40.571,3.539 -50.711,2.415 -59.374,0.404 l 0.008,1.289 c 8.643,1.997 18.75,3.114 29.543,3.047 10.93,-0.068 21.141,-1.341 29.831,-3.494 z" /></g><g
           transform="translate(303.001,176.1074)"
           id="g618"><path
             id="path620"
             style="fill:#64442f;fill-opacity:1;fill-rule:evenodd;stroke:none"
             d="M 0,0 C -7.154,1.766 -15.554,2.809 -24.543,2.865 -33.481,2.92 -41.849,1.992 -48.998,0.333 l 0.007,1.063 c 7.133,1.649 15.472,2.571 24.38,2.515 9.02,-0.056 17.447,-1.106 24.618,-2.884 z" /></g><g
           transform="translate(303.001,167.7207)"
           id="g622"><path
             id="path624"
             style="fill:#64442f;fill-opacity:1;fill-rule:evenodd;stroke:none"
             d="M 0,0 C -7.154,1.766 -15.554,2.81 -24.543,2.865 -33.481,2.92 -41.849,1.992 -48.998,0.333 l 0.007,1.064 c 7.133,1.648 15.472,2.57 24.38,2.514 9.02,-0.056 17.447,-1.106 24.618,-2.883 z" /></g><g
           transform="translate(303.001,157.9658)"
           id="g626"><path
             id="path628"
             style="fill:#64442f;fill-opacity:1;fill-rule:evenodd;stroke:none"
             d="M 0,0 C -7.154,1.766 -15.554,2.81 -24.543,2.865 -33.481,2.92 -41.849,1.992 -48.998,0.333 l 0.007,1.063 c 7.133,1.649 15.472,2.571 24.38,2.515 9.02,-0.056 17.447,-1.106 24.618,-2.884 z" /></g><g
           transform="translate(303.001,148.542)"
           id="g630"><path
             id="path632"
             style="fill:#64442f;fill-opacity:1;fill-rule:evenodd;stroke:none"
             d="M 0,0 C -7.154,1.766 -15.554,2.81 -24.543,2.865 -33.481,2.92 -41.849,1.992 -48.998,0.333 l 0.007,1.063 c 7.133,1.649 15.472,2.571 24.38,2.515 9.02,-0.056 17.447,-1.106 24.618,-2.884 z" /></g><g
           transform="translate(303.001,140.1553)"
           id="g634"><path
             id="path636"
             style="fill:#64442f;fill-opacity:1;fill-rule:evenodd;stroke:none"
             d="M 0,0 C -7.154,1.767 -15.554,2.81 -24.543,2.865 -33.481,2.921 -41.849,1.992 -48.998,0.333 l 0.007,1.064 c 7.133,1.648 15.472,2.57 24.38,2.514 9.02,-0.056 17.447,-1.105 24.618,-2.883 z" /></g><g
           transform="translate(303.001,130.4004)"
           id="g638"><path
             id="path640"
             style="fill:#64442f;fill-opacity:1;fill-rule:evenodd;stroke:none"
             d="M 0,0 C -7.154,1.767 -15.554,2.81 -24.543,2.865 -33.481,2.921 -41.849,1.992 -48.998,0.333 l 0.007,1.064 c 7.133,1.648 15.472,2.57 24.38,2.514 9.02,-0.056 17.447,-1.106 24.618,-2.883 z" /></g><g
           transform="translate(244.7222,176.6045)"
           id="g642"><path
             id="path644"
             style="fill:#925a33;fill-opacity:1;fill-rule:evenodd;stroke:none"
             d="M 0,0 C -7.154,1.766 -15.554,2.809 -24.542,2.864 -33.481,2.92 -41.849,1.992 -48.998,0.333 l 0.007,1.063 c 7.133,1.649 15.473,2.57 24.38,2.515 9.02,-0.057 17.447,-1.106 24.617,-2.884 z" /></g><g
           transform="translate(244.7222,168.2178)"
           id="g646"><path
             id="path648"
             style="fill:#925a33;fill-opacity:1;fill-rule:evenodd;stroke:none"
             d="M 0,0 C -7.154,1.766 -15.554,2.809 -24.542,2.865 -33.481,2.92 -41.849,1.992 -48.998,0.333 l 0.007,1.063 c 7.133,1.649 15.473,2.571 24.38,2.515 9.02,-0.056 17.447,-1.106 24.617,-2.884 z" /></g><g
           transform="translate(244.7222,158.4629)"
           id="g650"><path
             id="path652"
             style="fill:#925a33;fill-opacity:1;fill-rule:evenodd;stroke:none"
             d="M 0,0 C -7.154,1.766 -15.554,2.809 -24.542,2.864 -33.481,2.92 -41.849,1.992 -48.998,0.333 l 0.007,1.063 c 7.133,1.649 15.473,2.57 24.38,2.515 9.02,-0.056 17.447,-1.106 24.617,-2.884 z" /></g><g
           transform="translate(244.7222,149.0391)"
           id="g654"><path
             id="path656"
             style="fill:#925a33;fill-opacity:1;fill-rule:evenodd;stroke:none"
             d="M 0,0 C -7.154,1.766 -15.554,2.809 -24.542,2.864 -33.481,2.92 -41.849,1.992 -48.998,0.333 l 0.007,1.063 c 7.133,1.649 15.473,2.57 24.38,2.515 9.02,-0.056 17.447,-1.106 24.617,-2.884 z" /></g><g
           transform="translate(244.7222,140.6523)"
           id="g658"><path
             id="path660"
             style="fill:#925a33;fill-opacity:1;fill-rule:evenodd;stroke:none"
             d="M 0,0 C -7.154,1.766 -15.554,2.81 -24.542,2.865 -33.481,2.92 -41.849,1.992 -48.998,0.333 l 0.007,1.063 c 7.133,1.649 15.473,2.571 24.38,2.515 9.02,-0.056 17.447,-1.106 24.617,-2.884 z" /></g><g
           transform="translate(244.7222,130.8975)"
           id="g662"><path
             id="path664"
             style="fill:#925a33;fill-opacity:1;fill-rule:evenodd;stroke:none"
             d="M 0,0 C -7.154,1.766 -15.554,2.809 -24.542,2.865 -33.481,2.92 -41.849,1.992 -48.998,0.333 l 0.007,1.063 c 7.133,1.649 15.473,2.571 24.38,2.515 9.02,-0.056 17.447,-1.106 24.617,-2.884 z" /></g><g
           transform="translate(314.0303,199.6367)"
           id="g666"><path
             id="path668"
             style="fill:#e9eefe;fill-opacity:1;fill-rule:evenodd;stroke:none"
             d="m 0,0 c -1.382,-2.145 -3.271,-5.885 -5.11,-10.246 -0.024,-0.055 -0.046,-0.109 -0.069,-0.164 l 3.124,-1.307 c 0.024,0.055 0.046,0.109 0.07,0.164 1.838,4.362 3.196,8.324 3.765,10.808 z" /></g><g
           transform="translate(311.9023,195.5059)"
           id="g670"><path
             id="path672"
             style="fill:#172d68;fill-opacity:1;fill-rule:evenodd;stroke:none"
             d="M 0,0 2.433,-1.025 C 3.771,-1.59 4.43,-3.083 3.898,-4.343 L 3.85,-4.459 C 3.318,-5.719 1.788,-6.288 0.451,-5.724 l -2.432,1.026 c -1.338,0.564 -1.998,2.057 -1.467,3.317 l 0.049,0.116 C -2.867,-0.005 -1.338,0.564 0,0" /></g><g
           transform="translate(308.5029,194.2412)"
           id="g674"><path
             id="path676"
             style="fill:#00a0f7;fill-opacity:1;fill-rule:evenodd;stroke:none"
             d="m 0,0 c -4.219,-5.514 -9.611,-15.376 -14.519,-27.047 -0.06,-0.145 -0.122,-0.293 -0.182,-0.438 l 6.291,-2.643 h 10e-4 l 6.283,-2.661 c 0.062,0.145 0.124,0.291 0.186,0.435 4.934,11.661 8.234,22.407 9.238,29.276 l -3.647,1.545 z" /></g><g
           transform="translate(306.584,192.0664)"
           id="g678"><path
             id="path680"
             style="fill:#ec910f;fill-opacity:1;fill-rule:evenodd;stroke:none"
             d="m 0,0 c -0.536,-0.785 -1.087,-1.628 -1.648,-2.523 l 5.013,-2.065 4.713,-2.004 c 0.25,1.027 0.47,2.01 0.657,2.942 L 4.518,-1.856 H 4.517 Z" /></g><g
           transform="translate(300.0928,164.1133)"
           id="g682"><path
             id="path684"
             style="fill:#172d68;fill-opacity:1;fill-rule:evenodd;stroke:none"
             d="M 0,0 V 0 L -6.293,2.643 C -6.408,2.37 -6.521,2.099 -6.638,1.824 c -9.216,-21.918 -16.295,-41.72 -19.568,-54.028 l 3.557,-1.493 3.551,-1.505 c 6.531,10.934 15.772,29.824 25.037,51.722 0.116,0.274 0.231,0.544 0.346,0.817 z" /></g><g
           transform="translate(276.8369,104.4561)"
           id="g686"><path
             id="path688"
             style="fill:#e9eefe;fill-opacity:1;fill-rule:evenodd;stroke:none"
             d="M 0,0 C 0.736,1.739 -0.144,3.051 -0.544,3.22 L -0.549,3.222 -0.554,3.224 C -0.954,3.392 -2.508,3.108 -3.239,1.366 -3.97,-0.374 -3.604,-2.914 -3.207,-3.081 -2.812,-3.248 -0.736,-1.738 0,0" /></g><g
           transform="translate(280.9951,108.9111)"
           id="g690"><path
             id="path692"
             style="fill:#00a0f7;fill-opacity:1;fill-rule:evenodd;stroke:none"
             d="m 0,0 c -1.454,-2.818 -3.504,-4.837 -4.834,-6.058 -1.079,0.457 -2.159,0.912 -3.239,1.367 -0.055,1.804 0.002,4.665 1.006,7.672 C -4.709,1.991 -2.355,0.998 0,0" /></g><g
           transform="translate(311.9502,189.8447)"
           id="g694"><path
             id="path696"
             style="fill:#ec910f;fill-opacity:1;fill-rule:evenodd;stroke:none"
             d="m 0,0 c 4.87,-2.055 5.788,-1.817 5.632,-5.599 l -6.786,2.864 z" /></g><g
           transform="translate(315.5283,186.5049)"
           id="g698"><path
             id="path700"
             style="fill:#ec910f;fill-opacity:1;fill-rule:evenodd;stroke:none"
             d="m 0,0 c 0.599,-3.358 -2.492,-16.48 -5.956,-20.599 -1.803,-2.143 -2.45,-4.107 -2.089,-4.465 0.362,-0.357 2.942,1.973 3.462,2.537 1.856,2.012 7.141,16.308 6.615,21.826 z" /></g><g
           transform="translate(305.208,189.4307)"
           id="g702"><path
             id="path704"
             style="fill:#25b2f7;fill-opacity:1;fill-rule:evenodd;stroke:none"
             d="m 0,0 c -3.543,-5.655 -7.521,-13.431 -11.224,-22.236 -0.06,-0.146 -0.122,-0.293 -0.182,-0.439 l 6.292,-2.642 9.855,23.365 z" /></g><g
           transform="translate(300.0928,164.1133)"
           id="g706"><path
             id="path708"
             style="fill:#203c99;fill-opacity:1;fill-rule:evenodd;stroke:none"
             d="M 0,0 -6.291,2.643 H -6.293 C -6.408,2.37 -6.521,2.099 -6.638,1.824 c -9.216,-21.918 -16.295,-41.72 -19.568,-54.028 l 0.041,-0.017 c 0.199,-0.084 0.398,-0.168 0.599,-0.252 l 2.917,-1.224 z" /></g><g
           transform="translate(274.5264,111.6406)"
           id="g710"><path
             id="path712"
             style="fill:#25b2f7;fill-opacity:1;fill-rule:evenodd;stroke:none"
             d="m 0,0 -0.599,0.252 c -1.004,-3.008 -1.06,-5.868 -1.005,-7.673 0.094,-0.04 0.188,-0.079 0.283,-0.119 0.446,-0.188 0.891,-0.375 1.337,-0.564 l 1.746,4.141 1.154,2.735 C 1.944,-0.817 0.973,-0.408 0,0" /></g><g
           transform="translate(306.8555,191.9551)"
           id="g714"><path
             id="path716"
             style="fill:#25b2f7;fill-opacity:1;fill-rule:evenodd;stroke:none"
             d="M 0,0 2.69,-1.106 4.246,-1.745 4.281,-1.66 5.299,0.753 3.815,1.376 1.647,2.286 C 1.116,1.591 0.565,0.827 0,0" /></g><g
           transform="translate(308.5029,194.2412)"
           id="g718"><path
             id="path720"
             style="fill:#203c99;fill-opacity:1;fill-rule:evenodd;stroke:none"
             d="M 0,0 2.168,-0.91 3.651,-1.533 4.615,0.752 3.399,1.265 C 3.351,1.285 3.302,1.305 3.253,1.322 1.952,1.787 0.513,1.214 0,0" /></g><g
           transform="translate(295.5254,100.4668)"
           id="g722"><path
             id="path724"
             style="fill:#efaf9b;fill-opacity:1;fill-rule:evenodd;stroke:none"
             d="m 0,0 5.354,4.57 5.352,4.571 1.513,2.463 L 4.897,16.27 3.313,13.679 1.641,6.849 Z" /></g><g
           transform="translate(297.6631,102.3096)"
           id="g726"><path
             id="path728"
             style="fill:#2c2c39;fill-opacity:1;fill-rule:evenodd;stroke:none"
             d="M 0,0 -1.476,0.914 -2.138,-1.843 Z" /></g><g
           transform="translate(364.8809,213.4326)"
           id="g730"><path
             id="path732"
             style="fill:#15131a;fill-opacity:1;fill-rule:evenodd;stroke:none"
             d="M 0,0 0.157,-0.088 C 2.143,-1.311 2.771,-3.945 1.55,-5.931 l -60.199,-97.894 -0.032,0.017 c 0.249,0.627 -0.006,1.351 -0.617,1.738 -0.605,0.361 -1.347,0.259 -1.815,-0.243 0.298,0.641 0.053,1.421 -0.589,1.825 -0.612,0.386 -1.42,0.24 -1.875,-0.312 0.298,0.641 0.071,1.452 -0.565,1.831 -0.643,0.405 -1.451,0.258 -1.907,-0.293 L -5.843,-1.393 C -4.627,0.618 -1.992,1.247 0,0" /></g><g
           transform="translate(358.3965,211.0127)"
           id="g734"><path
             id="path736"
             style="fill:#f7d00f;fill-opacity:1;fill-rule:evenodd;stroke:none"
             d="M 0,0 7.393,-4.538 5.423,-7.74 -1.97,-3.201 Z" /></g><g
           transform="translate(305.583,111.3623)"
           id="g738"><path
             id="path740"
             style="fill:#131113;fill-opacity:1;fill-rule:evenodd;stroke:none"
             d="M 0,0 C 0.611,-0.387 0.866,-1.11 0.617,-1.737 L 0.648,-1.755 58.236,91.91 55.772,93.423 -0.285,2.254 -1.815,-0.242 C -1.347,0.26 -0.605,0.361 0,0" /></g><g
           transform="translate(300.6543,114.3877)"
           id="g742"><path
             id="path744"
             style="fill:#131113;fill-opacity:1;fill-rule:evenodd;stroke:none"
             d="M 0,0 C 0.611,-0.386 0.842,-1.117 0.617,-1.736 L 0.649,-1.755 58.236,91.911 55.772,93.424 -0.284,2.254 -1.815,-0.242 C -1.37,0.254 -0.604,0.361 0,0" /></g><g
           transform="translate(410.0918,135.085)"
           id="g746"><path
             id="path748"
             style="fill:#393a48;fill-opacity:1;fill-rule:evenodd;stroke:none"
             d="m 0,0 -1.08,-3.054 -0.459,-2.971 c 0,0 3.869,-2.328 6.154,-3.051 2.286,-0.725 4.165,0.316 3.576,0.928 -0.588,0.611 -5.65,4.189 -5.65,4.189 z" /></g><g
           transform="translate(383.6699,169.9268)"
           id="g750"><path
             id="path752"
             style="fill:#7b6e2f;fill-opacity:1;fill-rule:evenodd;stroke:none"
             d="m 0,0 c 1.249,0 14.996,-0.769 14.996,-0.769 0,0 17.59,-1.346 19.898,-3.845 2.306,-2.499 -5.961,-34.413 -5.961,-34.413 l -3.845,0.961 1.241,26.284 C 22.281,-11.588 -2.266,-14.764 -2.402,-11.1 -2.438,-10.149 0,0 0,0" /></g><g
           transform="translate(392.8555,206.0586)"
           id="g754"><path
             id="path756"
             style="fill:#e8c830;fill-opacity:1;fill-rule:evenodd;stroke:none"
             d="m 0,0 c -11.647,-5.537 -15.732,-34.705 -11.588,-47.231 l 13.347,10.554 c -2.976,13.98 4.464,23.144 2.957,30.13 C 3.811,-2.354 0.874,-0.043 0,0" /></g><g
           transform="translate(403.708,204.5303)"
           id="g758"><path
             id="path760"
             style="fill:#efaf9e;fill-opacity:1;fill-rule:evenodd;stroke:none"
             d="m 0,0 c -2.787,-2.835 -4.854,-2.836 -6.393,-0.144 -1.316,2.305 -1.576,4.998 -1.261,7.474 -0.743,0.253 -1.232,1.164 -1.14,2.249 0.108,1.28 0.985,2.319 1.957,2.319 0.216,0 0.419,-0.051 0.602,-0.145 0.601,1.036 1.321,1.91 2.044,2.865 1.345,1.778 7.506,0.192 8.901,-2.41 C 6.449,8.962 1.987,2.021 0,0" /></g><g
           transform="translate(400.6787,217.1484)"
           id="g762"><path
             id="path764"
             style="fill:#1e1925;fill-opacity:1;fill-rule:evenodd;stroke:none"
             d="m 0,0 c -0.361,-0.071 -2.188,-3.797 -2.571,-3.557 -0.385,0.242 -0.635,2.692 -0.635,2.692 0,0 -0.004,0.139 -0.602,0.145 -0.596,0.005 -1.021,-0.4 -1.021,-0.4 0,0 0.502,4.28 1.175,4.856 0.673,0.577 2.668,0.53 2.668,0.53 0,0 0.624,0.672 1.994,1.008 C 2.378,5.611 4.78,4.241 8.121,2.607 11.429,0.989 12.293,-2.36 8.117,-2.614 4.275,-2.848 0,0 0,0" /></g><g
           transform="translate(416.083,167.1064)"
           id="g766"><path
             id="path768"
             style="fill:#292635;fill-opacity:1;fill-rule:evenodd;stroke:none"
             d="M 0,0 0.104,0.955 -17.954,2.938 -18.059,1.982 Z" /></g><g
           transform="translate(425.0879,183.4756)"
           id="g770"><path
             id="path772"
             style="fill:#30303c;fill-opacity:1;fill-rule:evenodd;stroke:none"
             d="M 0,0 -0.066,1.384 -3.1,0.989 l -5.66,-16.573 2.272,-0.625 1.167,0.175 z" /></g><g
           transform="translate(418.7568,166.8125)"
           id="g774"><path
             id="path776"
             style="fill:#30303d;fill-opacity:1;fill-rule:evenodd;stroke:none"
             d="M 0,0 0.105,0.955 -17.954,2.938 -18.059,1.982 Z" /></g><g
           transform="translate(425.9258,184.5342)"
           id="g778"><path
             id="path780"
             style="fill:#393a48;fill-opacity:1;fill-rule:evenodd;stroke:none"
             d="m 0,0 -0.904,0.325 -6.159,-17.092 0.904,-0.325 z" /></g><g
           transform="translate(404.835,171.7891)"
           id="g782"><path
             id="path784"
             style="fill:#efaf9e;fill-opacity:1;fill-rule:evenodd;stroke:none"
             d="M 0,0 C 0.377,0.006 1.641,-0.04 1.976,-0.017 2.311,0.006 5.362,0.149 5.747,0.029 5.942,-0.031 6.97,-0.621 7.863,-1.352 8.355,-1.754 9.396,-2.97 9.52,-3.082 9.77,-3.311 9.023,-3.514 8.664,-3.344 8.248,-3.146 7.352,-2.035 7.352,-2.035 7.184,-1.979 7.024,-1.922 6.876,-1.865 6.982,-2.008 7.062,-2.127 7.09,-2.193 7.197,-2.464 7.221,-3.162 7.083,-3.203 6.945,-3.244 6.723,-3.317 6.32,-3.125 6.098,-3.019 5.743,-2.613 5.479,-2.252 4.852,-3.022 2.606,-3.077 1.758,-2.83 0.896,-2.579 0.39,-2.036 0.39,-2.036 Z" /></g><g
           transform="translate(387.8984,183.1709)"
           id="g786"><path
             id="path788"
             style="fill:#fada4a;fill-opacity:1;fill-rule:evenodd;stroke:none"
             d="M 0,0 18.912,-11.398 17.326,-13.418 -5.02,-3.17 c -2.64,1.211 3.071,19.269 4.385,22.513 1.084,2.675 3.883,3.269 5.595,2.573 C 9.239,20.175 0.316,1.805 0,0" /></g><g
           transform="translate(150.1582,212.9443)"
           id="g790"><path
             id="path792"
             style="fill:#efaf9e;fill-opacity:1;fill-rule:evenodd;stroke:none"
             d="M 0,0 C -0.062,0.027 -0.616,3.658 -0.27,4.318 0.077,4.979 1.536,6.313 1.565,5.808 1.594,5.302 0.96,4.214 0.96,4.214 L 1.069,3.313 c 0,0 1.678,3.366 2.211,3.835 0.533,0.47 0.844,0.252 0.844,0.252 0,0 0.584,0.74 0.918,0.587 C 5.377,7.835 5.343,7.402 5.319,7.263 5.294,7.124 5.29,7.083 5.29,7.083 c 0,0 0.168,0.062 0.331,-0.232 0.163,-0.295 0.103,-0.725 0.103,-0.725 0,0 0.237,-0.038 0.287,-0.431 C 6.06,5.303 5.982,5.105 5.958,5.04 5.936,4.976 4.771,2.431 4.744,2.306 4.716,2.181 4.745,1.635 4.199,0.747 3.653,-0.141 2.183,-1.19 2.183,-1.19 -0.101,-0.646 0.062,-0.028 0,0" /></g><g
           transform="translate(133.2222,212.9443)"
           id="g794"><path
             id="path796"
             style="fill:#9f68fa;fill-opacity:1;fill-rule:evenodd;stroke:none"
             d="m 0,0 c 0.495,-0.206 10.921,-11.372 11.209,-11.454 0.289,-0.083 5.397,11.536 5.727,11.454 0.33,-0.083 2.514,-0.866 2.514,-0.866 0,0 -5.466,-15.267 -6.166,-16.256 -0.701,-0.989 -11.265,5.603 -14.273,9.518 -3.009,3.915 -2.981,6.848 -1.896,7.665 C -1.8,0.878 0,0 0,0" /></g><g
           transform="translate(156.2007,201.4883)"
           id="g798"><path
             id="path800"
             style="fill:#efaf9e;fill-opacity:1;fill-rule:evenodd;stroke:none"
             d="m 0,0 c 0.451,-0.12 0.979,-0.229 1.406,-0.229 0.947,0 1.854,0.454 1.566,-0.082 C 2.812,-0.607 1.58,-1.163 0.368,-1.692 Z" /></g><g
           transform="translate(156.3247,200.9346)"
           id="g802"><path
             id="path804"
             style="fill:#002d5a;fill-opacity:1;fill-rule:evenodd;stroke:none"
             d="M 0,0 C 0,0 7.969,0.367 9.686,-6.621 L 20.353,6.13 c 0,0 -4.537,5.885 -10.176,4.291 z" /></g><g
           transform="translate(131.7666,183.6709)"
           id="g806"><path
             id="path808"
             style="fill:#44437f;fill-opacity:1;fill-rule:evenodd;stroke:none"
             d="m 0,0 c -1.56,-1.022 -4.121,-2.005 -6.155,-10.168 -2.034,-8.164 1.283,-31.076 1.283,-31.076 0,0 -2.834,-9.175 -4.008,-16.844 -1.173,-7.668 -2.562,-18.016 -2.562,-18.016 l 3.639,-1.079 10.278,34.033 c 3.628,12.009 3.437,39.843 2.278,40.492 z" /></g><g
           transform="translate(131.4028,107.1709)"
           id="g810"><path
             id="path812"
             style="fill:#f5d9d6;fill-opacity:1;fill-rule:evenodd;stroke:none"
             d="m 0,0 -0.944,-1.559 -0.362,-1.68 c 0,0 1.757,-2.466 3.56,-2.29 1.803,0.176 2.124,1.25 2.124,1.25 l -1.6,2.261 z" /></g><g
           transform="translate(130.0967,103.9316)"
           id="g814"><path
             id="path816"
             style="fill:#303879;fill-opacity:1;fill-rule:evenodd;stroke:none"
             d="m 0,0 c -0.533,-0.112 -0.929,-2.833 -0.415,-3.406 h 2.803 0.549 c 1.612,0 5.451,-0.088 6.677,0 1.242,0.09 3.155,0.986 1.084,1.479 C 8.628,-1.435 4.884,0.091 4.884,0.091 4.415,-1.87 0.938,-0.877 0,0" /></g><g
           transform="translate(125.6992,184.6719)"
           id="g818"><path
             id="path820"
             style="fill:#4e4d8f;fill-opacity:1;fill-rule:evenodd;stroke:none"
             d="m 0,0 c -1.319,-1.319 -3.626,-2.802 -3.956,-11.209 -0.33,-8.406 7.582,-30.163 7.582,-30.163 0,0 -0.906,-9.561 -0.495,-17.307 0.412,-7.747 1.44,-20.977 1.44,-20.977 l 4.068,-0.086 2.569,37.999 c 0,0 1.483,18.296 1.648,25.548 0.165,7.253 -2.719,15.082 -2.719,15.082 z" /></g><g
           transform="translate(122.6567,230.1279)"
           id="g822"><path
             id="path824"
             style="fill:#1e1925;fill-opacity:1;fill-rule:evenodd;stroke:none"
             d="M 0,0 C -0.148,-0.648 0.697,-3.378 1.416,-4.937 2.134,-6.496 4.14,-7.34 4.122,-7.11 4.105,-6.882 3.555,-1.321 3.555,-1.321 Z" /></g><g
           transform="translate(130.5762,223.4121)"
           id="g826"><path
             id="path828"
             style="fill:#eda08c;fill-opacity:1;fill-rule:evenodd;stroke:none"
             d="m 0,0 c 0,0 0.75,-0.77 1.537,-4.079 0.498,-2.096 1.57,-4.072 3.346,-5.56 0,0 0.418,-3.131 -8.781,1.759 l -0.17,9.565 z" /></g><g
           transform="translate(136.5776,222.8574)"
           id="g830"><path
             id="path832"
             style="fill:#efaf9e;fill-opacity:1;fill-rule:evenodd;stroke:none"
             d="m 0,0 c -0.644,-3.829 -2.296,-4.986 -5.034,-3.693 -2.343,1.106 -4.058,3.115 -5.193,5.273 -0.735,-0.214 -1.636,0.241 -2.17,1.161 -0.629,1.085 -0.509,2.406 0.268,2.95 0.173,0.121 0.364,0.194 0.563,0.221 -0.1,1.166 -0.013,2.269 0.031,3.437 0.081,2.175 5.899,4.354 8.47,3.053 C 0.144,10.779 0.458,2.729 0,0" /></g><g
           transform="translate(127.0913,231.2559)"
           id="g834"><path
             id="path836"
             style="fill:#ec5a33;fill-opacity:1;fill-rule:evenodd;stroke:none"
             d="m 0,0 c -0.248,-0.259 0.376,-4.261 -0.066,-4.284 -0.443,-0.023 -2.014,1.798 -2.014,1.798 0,0 -0.082,0.109 -0.563,-0.221 -0.48,-0.329 -0.593,-0.892 -0.593,-0.892 0,0 -1.994,3.705 -1.779,4.543 0.216,0.838 1.839,1.916 1.839,1.916 0,0 0.123,0.889 1.03,1.924 C -1.238,5.82 1.452,6.069 5.038,6.631 8.59,7.187 11.156,4.992 7.958,2.452 5.015,0.115 0,0 0,0" /></g><g
           transform="translate(129.6772,217.1416)"
           id="g838"><path
             id="path840"
             style="fill:#ad71ff;fill-opacity:1;fill-rule:evenodd;stroke:none"
             d="m 0,0 c 2.347,-0.736 2.192,-3.256 5.758,-3.335 0,0 3.997,-5.783 4.988,-7.803 1.689,-3.441 -1.664,-5.624 -2.051,-7.771 -0.387,-2.148 -0.535,-22.058 0.056,-23.287 0.592,-1.229 -17.298,1.835 -16.089,4.157 1.208,2.322 2.025,11.876 2.421,20.123 0.398,8.246 -0.71,11.365 -0.252,14.42 C -4.71,-0.44 -2.854,0.896 0,0" /></g><g
           transform="translate(129.0908,234.2383)"
           id="g842"><path
             id="path844"
             style="fill:#ec5a33;fill-opacity:1;fill-rule:evenodd;stroke:none"
             d="m 0,0 c -0.528,-0.625 -1.452,-2.655 -0.155,-7.791 1.297,-5.136 0.22,-8.668 -2.606,-11.783 -2.827,-3.115 -0.885,-13.113 -1.489,-10.895 -0.603,2.219 -5.454,5.782 -3.835,11.229 1.619,5.447 2.446,8.212 1.648,9.521 -0.799,1.309 -2.33,5.288 -1.285,7.527 1.045,2.237 2.157,2.333 2.235,2.705 0.078,0.371 0.886,1.74 2.279,2.417 1.393,0.675 6.357,2.156 8.23,1.045 C 6.894,2.863 7.117,1.717 5.42,0.221 3.724,-1.274 0,0 0,0" /></g><g
           transform="translate(120.4761,107.8672)"
           id="g846"><path
             id="path848"
             style="fill:#f5d9d6;fill-opacity:1;fill-rule:evenodd;stroke:none"
             d="m 0,0 -0.772,-1.536 c 0,0 1.082,-2.828 2.871,-3.11 1.789,-0.283 2.37,0.676 2.37,0.676 l -0.982,2.591 z" /></g><g
           transform="translate(119.7036,106.3311)"
           id="g850"><path
             id="path852"
             style="fill:#303879;fill-opacity:1;fill-rule:evenodd;stroke:none"
             d="m 0,0 c -0.544,0.024 -1.611,-2.51 -1.257,-3.193 0.904,-0.235 1.809,-0.47 2.714,-0.704 0.177,-0.046 0.354,-0.092 0.531,-0.138 1.56,-0.404 5.255,-1.453 6.463,-1.676 1.226,-0.225 3.301,0.163 1.421,1.159 C 7.992,-3.555 4.75,-1.139 4.75,-1.139 3.804,-2.919 0.688,-1.085 0,0" /></g><g
           transform="translate(131.9341,213.0039)"
           id="g854"><path
             id="path856"
             style="fill:#ae83ff;fill-opacity:1;fill-rule:evenodd;stroke:none"
             d="M 0,0 C 0,0 -1.695,3.573 -4.494,1.766 -7.293,-0.041 2.612,-23.221 4.368,-23.241 6.124,-23.262 22.5,-14.67 22.5,-14.67 l -1.155,2.308 c 0,0 -15.658,-6.017 -15.824,-5.11 C 5.357,-16.565 0,0 0,0" /></g><g
           transform="translate(156.3247,200.9346)"
           id="g858"><path
             id="path860"
             style="fill:#002d5a;fill-opacity:1;fill-rule:evenodd;stroke:none"
             d="M 0,0 C 0,0 -6.241,4.611 -8.79,3.478 L 1.55,13.534 c 0,0 5.639,1.352 8.627,-3.113 z" /></g><g
           transform="translate(166.5015,211.3555)"
           id="g862"><path
             id="path864"
             style="fill:#829cbf;fill-opacity:1;fill-rule:evenodd;stroke:none"
             d="M 0,0 C 0,0 5.626,2.894 9.007,-1.919 L 0,-11.869 c 0,0 -5.781,3.804 -9.855,1.776 z" /></g><g
           transform="translate(166.5015,211.3555)"
           id="g866"><path
             id="path868"
             style="fill:#fafdff;fill-opacity:1;fill-rule:evenodd;stroke:none"
             d="m 0,0 c 0,0 4.065,3.348 7.251,1.983 l -8.584,-9.3 c 0,0 -4.448,0.942 -8.522,-2.776 z" /></g><g
           transform="translate(156.646,201.2627)"
           id="g870"><path
             id="path872"
             style="fill:#f1f9f9;fill-opacity:1;fill-rule:evenodd;stroke:none"
             d="m 0,0 c 0,0 -3.341,3.911 -6.889,4.129 l 9.66,9.551 c 0,0 4.967,1.037 7.084,-3.587 z" /></g><g
           transform="translate(155.9722,209.877)"
           id="g874"><path
             id="path876"
             style="fill:#999eae;fill-opacity:1;fill-rule:evenodd;stroke:none"
             d="m 0,0 -0.001,0.241 h 0.035 c 3.153,0 4.713,-2.552 4.728,-2.579 L 4.556,-2.461 C 4.541,-2.436 3.047,0 0.034,0 Z" /></g><g
           transform="translate(154.8682,208.6172)"
           id="g878"><path
             id="path880"
             style="fill:#999eae;fill-opacity:1;fill-rule:evenodd;stroke:none"
             d="m 0,0 -0.002,0.24 h 0.036 c 3.153,0 4.712,-2.552 4.728,-2.577 L 4.556,-2.461 C 4.541,-2.437 3.047,0 0.034,0 Z" /></g><g
           transform="translate(158.4053,205.0205)"
           id="g882"><path
             id="path884"
             style="fill:#999eae;fill-opacity:1;fill-rule:evenodd;stroke:none"
             d="m 0,0 -0.207,-0.124 c -0.015,0.025 -1.508,2.461 -4.522,2.461 h -0.034 l -0.001,0.24 C -1.595,2.601 -0.017,0.025 0,0" /></g><g
           transform="translate(153.2793,200.6416)"
           id="g886"><path
             id="path888"
             style="fill:#efaf9e;fill-opacity:1;fill-rule:evenodd;stroke:none"
             d="M 0,0 C 0.332,1.751 1.969,4.96 2.102,4.162 2.266,3.173 2.13,1.533 2.091,1.257 2.053,0.98 2.283,0.686 3.416,0.294 L 3.289,-0.846 C 2.308,-1.273 1.63,-1.65 1.022,-2.044 1.01,-2.052 -0.032,-0.174 0,0" /></g></g></g><g
       id="g890"></g></g></svg>